<svg xmlns="http://www.w3.org/2000/svg" viewBox="0 0 1440 1000">
  <path fill-rule="evenodd" clip-rule="evenodd" d="M-707.104 884.076c5.308-7.608 24.412-42.568 35-64.048 2.818-5.717 8.377-16.749 12.351-24.515 3.977-7.767 9.776-19.217 12.886-25.445 7.317-14.642 25.412-41.084 34.258-50.058 9.698-9.838 23.891-19.67 33.274-23.052 10.353-3.732 35.425-6.118 69.39-6.609 33.901-.488 54.294-5.279 75.043-17.632 20.631-12.283 32.315-26.938 38.087-47.772 4.405-15.889 4.958-22.76 5.232-64.823.237-36.356 7.225-69.946 19.142-92.026 4.418-8.187 9.08-16.117 10.359-17.622 1.278-1.508 6.431-7.967 11.448-14.353 12.374-15.744 34.523-34.219 49.265-41.088 34.127-15.903 59.326-9.958 89.856 21.207 7.716 7.876 28.017 36.892 57.275 81.862 24.927 38.312 50.951 76.151 57.8319 84.082 6.8802 7.934 19.6535 22.585 28.3851 32.558 39.8054 45.469 51.2321 71.369 55.072 124.825 4.13886 57.608 12.662004 70.445 46.1008 69.436 8.2055-.247 13.5142-2.646 31.4169-14.202 28.5624-18.434 32.2913-19.596 50.2533-15.662 17.92 3.923 29.352 10.65 62.478 36.765 26.463 20.861 43.411 37.641 58.495 57.917 16.991 22.84 33.219 41.054 42.545 47.757 12.032 8.645 31.417 14.837 44.158 14.105 13.007-.747 20.105-7.812 32.988-32.834 11.577-22.484 15.801-27.987 27.326-35.606 12.253-8.099 28.492-11.703 55.05-12.218 12.96-.253 27.097-1.347 31.417-2.432 9.22-2.32 22.06-10.283 45.114-27.984 28.367-21.781 52.909-28.47 86.683-23.625 30.094 4.317 34.594 2.519 62.933-25.126 39.918-38.943 69.982-53.067 102.241-48.035 14.082 2.197 17.167 3.544 41.003 17.922 14.177 8.55 31.06 17.18 37.519 19.178 22.175 6.856 47.647 1.343 80.295-17.383 28.471-16.332 41.762-21.58 76.723-30.306 18.39-4.591 33.92-8.237 34.52-8.107.59.13 8.32-1.337 17.18-3.261 34.95-7.589 42.1-7.812 68.06-2.115 24.22 5.317 32.57 8.943 54.38 23.609 4.51 3.029 13.96 9.255 21 13.829 7.04 4.576 14.42 9.521 16.4 10.992 6.3 4.686 29.98 17.041 34.61 18.058 7.09 1.556 18.16-1.858 22.87-7.056 2.38-2.627 8.28-13.333 13.11-23.792 10.96-23.731 18.56-34.218 30.75-42.38 15.63-10.475 44.51-15.449 64.38-11.088 15.41 3.383 42.41 17.837 63.19 33.826 76.53 58.892 94.06 74.685 105.41 94.941 13.71 24.457 10.34 43.853-16.22 93.168-18.94 35.185-23.09 44.691-27.11 62.113-6.97 30.219-1.94 42.499 33.28 81.169 17.99 19.75 32.66 44.24 36.22 60.47 2.5 11.36 2.19 15.41-3.52 46.67-4.9 26.8-5.82 35.77-4.23 41.31 2.99 10.46 11.32 14.63 35.16 17.62 10.71 1.35 28.45 4.41 39.42 6.8l19.94 4.35 27.55 22.11c27.47 22.05 69.36 54.66 70.53 54.92.34.08 6.38 5.33 13.42 11.67 31.14 28.05 45.72 55.14 48.1 89.34 1.03 14.72-.8 35.88-3.05 35.39-.89-.2-1.06-2.94-.36-6.1 2.01-9.17.62-35.71-2.61-49.77-3.75-16.34-19.37-42.65-33.81-56.94-10.6-10.49-33.1-29.13-50.05-41.46-4.4-3.2-19.61-15.32-33.8-26.93-41.66-34.07-47.27-36.61-85.21-38.68-28.68-1.56-42.95-7.5-47.77-19.88-1.87-4.84-1.1-12.54 4.17-41.18 6.14-33.38 6.31-35.92 3.39-48.47-4.14-17.72-14.53-34.54-38.56-62.37-21.45-24.86-28.41-35.44-32.58-49.58-2.31-7.839-1.99-11.826 2.55-31.905 5.39-23.85 7.35-28.227 32.87-73.416 7.68-13.589 10.37-20.744 14.22-37.719 4.39-19.423 4.48-21.628 1.23-30.272-7.62-20.238-24.27-37.977-66.91-71.256-76.4-59.627-72.46-57.191-103.69-64.269-24.18-5.478-25.34-5.541-39.25-2.087-25.4 6.305-41.3 20.018-51.28 44.226-8.31 20.155-15.24 30.955-22.84 35.6-6.67 4.078-8.57 4.208-20.64 1.419-13.54-3.13-22.84-8.098-48.98-26.157-7.49-5.172-14.51-9.607-15.6-9.86-1.1-.25-4.26-2.359-7.04-4.686-2.77-2.329-9.79-6.768-15.6-9.868-34.59-18.48-58.71-21.578-99.89-12.836-79.114 16.798-100.316 23.34-125.547 38.746-29.029 17.723-51.694 25.324-73.66 24.702-14.339-.404-20.898-3.156-52.783-22.147-30.983-18.455-39.789-21.226-59.675-18.782-25.948 3.189-59.455 24.095-90.201 56.278-5.224 5.467-14.019 12.258-19.544 15.091-9.496 4.869-11.36 5.011-34.009 2.586-40.501-4.334-58.756 1.152-94.813 28.498-28.573 21.671-35.358 24.368-62.76 24.963-27.366.595-41.568 2.718-53.564 8.01-15.826 6.979-20.413 12.469-37.662 45.069-9.851 18.62-17.14 25.33-30.271 27.868-13.74 2.656-27.314-.939-43.573-11.543-12.783-8.334-22.487-18.572-44.194-46.616-21-27.132-30.001-36.448-54.625-56.547-34.521-28.172-51.883-38.894-69.084-42.657-14.3611-3.142-20.5686-.99-47.4561 16.45-17.866 11.589-22.8637 13.809-32.9571 14.649-15.4474 1.284-19.8277.13-29.46136-7.771-10.35292-8.49-15.71974-24.157-17.96744-52.444-5.5947-70.439-12.1199-84.893-66.6512-147.658-25.9158-29.83-35.6968-43.361-71.3448-98.697-50.974-79.128-61.976-92.821-86.708-107.919-12.855-7.845-21.592-9.736-35.981-7.78-34.772 4.722-75.101 40.339-97.917 86.479-11.805 23.872-16.6 55.749-15.555 103.396.217 9.867-1.488 22.976-5.166 39.705-5.2 23.655-5.92 25.487-13.654 34.688-4.491 5.343-15.595 14.479-24.675 20.304-20.636 13.237-42.855 18.721-77.193 19.054-53.504.517-70.092 3.875-88.707 17.962-21.334 16.143-33.779 34.924-67.449 101.773-22.177 44.031-23.723 46.988-32.165 61.529-4.301 7.408-8.637 13.288-9.634 13.069-.997-.218-.817-1.829.403-3.576Zm40.78 9.935c1.361-7.561 24.439-37.754 51.023-66.751 7.914-8.63 24.893-28.538 37.732-44.24 25.182-30.792 41.046-44.391 57.619-49.393 9.072-2.738 23.86-4.857 56.631-8.124 48.533-4.839 82.803-23.877 97.652-54.25 3.228-6.603 10.23-28.011 15.561-47.575 17.144-62.929 38.928-96.94 71.31-111.339 7.708-3.427 10.895-3.607 21.734-1.228 22.816 5.008 39.754 19.71 81.452 70.707 23.311 28.508 34.468 40.763 73.988 81.266 20.2188 20.721 34.7471 41.241 41.6645 58.841 2.1763 5.54 7.385 22.841 11.5765 38.444 11.1042 41.348 23.0886 60.764 46.22877 74.891 24.07333 14.693 41.86963 12.848 74.76463-7.746 26.1642-16.382 31.5346-18.099 45.9006-14.686 13.437 3.192 25.883 12.154 59.197 42.623 25.626 23.437 39.759 35.672 68.764 59.522 39.096 32.151 50.036 48.963 53.167 81.693 1.328 13.894 6.501 25.564 13.527 30.494 9.865 6.94 11.206 4.9 13.736-20.8 2.613-26.524 6.689-37.439 22.972-61.497 26.701-39.456 44.566-57.304 63.505-63.44 6.388-2.07 17.605-2.63 35.219-1.757 14.239.706 30.78.171 36.838-1.192 15.639-3.521 33.423-14.338 50.259-30.577 27.125-26.158 41.805-30.58 87.356-26.315 24.795 2.322 36.698-.984 50.98-14.155 31.79-29.321 41.635-33.923 71.522-33.443 19.806.32 54.036 8.681 83.857 20.486 18.784 7.434 23.752 11.178 39.511 29.787 6.324 7.468 13.88 14.624 16.791 15.902 17.107 7.514 39.018-4.859 63.172-35.668 17.144-21.869 27.74-30.35 42.961-34.385 10.343-2.742 42.153-7.033 45.963-6.198 1.39.305 18.86-2.132 38.82-5.413 53.22-8.753 65.95-9.288 90.88-3.815 15.4 3.378 24.28 6.483 34.07 11.901 25.56 14.146 34.82 25.094 50.88 60.145 10.88 23.755 17.43 34.466 18.35 30.052.34-1.567.35-8.09.03-14.494-.7-14.483 4.13-25.806 17.58-41.17 5.08-5.797 13.6-16.99 18.94-24.874 13.26-19.571 24.25-30.511 34.21-34.047 8.17-2.902 9.54-2.711 58.18 8.148 41.36 9.235 51.71 12.164 61 17.27 39.15 21.507 58.97 65.891 51.9 116.229-2.45 17.518-6.36 28.687-22.42 64.145-5.68 12.548-11.51 28.197-12.95 34.77-5.79 26.375 4.7 52.695 28.88 72.445 38.56 31.49 52.9 71.06 42.87 118.31-4.75 22.38-12.32 37.35-32.88 65.12-8.59 11.6-13.2 22.63-11.14 26.63 4.38 8.5 22.94 7.47 37.51-2.08 23.49-15.39 39.22-20.18 64.45-19.63 17.05.37 19.03.81 37.39 8.35 31.46 12.92 52.92 28.57 73.04 53.26 9.26 11.37 19.16 27.73 42.88 70.88 4.27 7.77 11.25 20.08 15.52 27.35 7.61 12.99 13.6 29.62 11.22 31.14-.66.43-2.15-2.75-3.3-7.05-1.15-4.31-8.94-20.01-17.32-34.89-8.37-14.88-20.76-37.02-27.52-49.19-26.55-47.77-55.6-74.26-97.94-89.33-34.65-12.34-59.5-10.38-88.46 6.95-25.3 15.14-40.34 17.34-48.73 7.12-4.01-4.89-4.25-6.53-1.8-12.32 1.56-3.67 4-7.95 5.42-9.51 6.6-7.25 27.4-40.56 31.69-50.77 9.92-23.57 12.63-53.61 7.02-77.75-4.38-18.82-19.94-41.82-40.11-59.28-19.83-17.17-25.12-24.55-29.96-41.8-3.38-12.03-3.52-16.46-1.01-31.183 1.61-9.438 5.06-21.875 7.66-27.638 22.3-49.282 28.29-69.549 28.54-96.513.35-38.312-21.01-75.19-52.83-91.198-10.62-5.346-22.95-8.978-59.15-17.42-43.86-10.228-46.1-10.557-54.86-8.077-11.43 3.239-23.13 14.207-32.99 30.93-2.16 3.653-10.13 14.142-17.72 23.308-19.27 23.255-21.42 30.512-18.58 62.618.67 7.51-4.4 4.906-10.68-5.485-3-4.978-10.32-19.106-16.25-31.392-16.97-35.109-24.26-43.11-52.67-57.776-26.75-13.813-56.32-16.409-98.76-8.669-11.78 2.149-35.85 5.416-53.5 7.262-17.65 1.846-39.17 5.119-47.824 7.274-18.62 4.636-26.682 10.925-47.678 37.193-16.818 21.04-34.36 33.762-47.975 34.793-12.126.918-20.903-4.228-34.25-20.081-5.783-6.87-14.141-15.213-18.572-18.542-14.076-10.575-75.817-27.884-103.894-29.127-23.796-1.053-36.069 4.262-59.126 25.604-10.668 9.877-20.818 17.337-26.288 19.32-9.075 3.292-12.941 3.424-49.348 1.693-21.719-1.033-38.169 1.838-49.599 8.66-3.732 2.228-13.343 10.326-21.361 17.999-30.824 29.499-49.493 35.607-97.449 31.88-19.068-1.484-28.805.982-41.897 10.605-15.709 11.55-29.826 28.802-51.887 63.404-10.222 16.035-13.287 25.771-17.419 55.328-3.488 24.96-5.515 27.13-16.848 18.03-8.508-6.83-12.916-17.27-15.494-36.718-4.105-30.93-14.087-45.092-55.802-79.164-28.95-23.645-41.405-34.431-72.6-62.879-33.791-30.812-48.631-38.96-65.179-35.784-3.8627.742-16.5564 7.42-28.2109 14.84-27.9387 17.791-39.801 20.624-60.9584 14.566-32.8029-9.392-51.3945-32.824-63.9251-80.567-13.4225-51.134-21.7936-66.616-53.6426-99.199-38.223-39.101-47.061-48.683-65.025-70.49-9.985-12.121-23.519-28.273-30.079-35.896-33.236-38.625-57.903-52.346-78.186-43.486-31.961 13.959-53.942 49.211-72.08 115.591-5.374 19.667-11.095 37.732-12.715 40.143-1.618 2.411-4.704 7.767-6.859 11.902-8.329 15.978-37.602 34.611-64.244 40.894-13.501 3.185-25.531 4.849-54.262 7.51-41.798 3.869-54.574 12.286-95.316 62.785-9.079 11.254-25.401 30.29-36.27 42.303-16.899 18.676-26.618 30.885-39.035 49.025-8.045 11.753-8.874 12.673-8.236 9.125Zm23.959 1.238c6.362-14.862 26.002-39.62 44.769-56.44 26.362-23.624 76.518-49.153 145.644-74.129 52.044-18.804 59.894-22.038 71.395-29.416 12.005-7.7 20.126-17.275 32.904-38.794 3.935-6.623 11.04-18.618 15.791-26.654 9.346-15.805 10.719-17.583 23.89-30.94 18.457-18.72 43.005-26.92 65.54-21.89 29.333 6.547 88.612 45.452 123.452 81.025 18.146 18.528 42.8214 58.714 61.4895 100.138 27.1257 60.197 41.1538 75.844 71.3446 79.568 17.4763 2.156 31.975-1.395 54.2025-13.277 32.1304-17.177 43.7584-18.03 69.5634-5.103 17.932 8.981 18.85 9.572 54.793 35.309 30.482 21.826 52.926 40.428 64.023 53.061 24.917 28.371 49.192 89.273 51.997 130.473 1.294 18.99.295 32.53-2.355 31.94-1.111-.24-1.407-3.22-.66-6.62 5.001-22.79-6.628-75.57-24.675-112.029-18.99-38.354-32.256-52.535-86.622-92.59-48.052-35.407-75.869-48.325-95.4495-44.333-5.341 1.089-17.1768 6.001-26.3022 10.916-21.1946 11.414-33.6175 15.345-50.34 15.934-34.8895 1.228-52.9831-17.198-83.9359-85.479-23.56-51.979-45.4694-84.894-72.2264-108.508-24.052-21.229-40.902-33.55-66.637-48.728-24.46-14.426-40.704-20.522-54.274-20.365-14.447.165-26.981 4.129-37.943 12.001-20.296 14.573-27.632 24.085-53.623 69.522-4.683 8.187-11.359 18.462-14.837 22.832-8.526 10.715-27.452 22.032-51.356 30.704-112.8 40.926-149.653 58.658-183.471 88.287-18.158 15.907-41.46 45.235-43.566 54.832-.423 1.924-1.772 3.852-2.999 4.284-1.395.49-1.216-1.584.474-5.531Zm23.241 3.955c5.94-11.274 32.517-42.022 47.82-55.324 38.736-33.671 78.107-49.633 135.828-55.068 12.948-1.218 25.495-2.555 27.885-2.97 35.853-6.217 41.964-9.693 63.66-36.197 25.052-30.605 49.009-42.847 89.687-45.829 12.974-.951 20.555-.006 48.305 6.027 36.601 7.956 51.752 14.391 80.95 34.388 36.2343 24.812 51.9564 46.425 66.2301 91.044 14.446 45.158 31.4656 64.649 64.98767 74.422 21.97733 6.407 34.63443 3.58 60.43993-13.5 25.1452-16.643 29.6242-18.357 44.9373-17.193 46.969 3.568 97.195 40.442 140.966 103.496 16.526 23.81 31.05 58.28 32.956 78.23.442 4.63 1.282 9.46 1.868 10.74 1.518 3.33 1.133 23.5-.572 29.82-.9 3.34-1.407 1.03-1.353-6.16.384-50.56-14.81-88.36-55.285-137.525-33.081-40.182-64.465-62.664-100.78-72.195-27.732-7.279-34.0996-6.027-58.7666 11.541-24.315 17.318-38.2399 21.15-59.8119 16.457-37.5649-8.17-56.8644-28.901-72.3202-77.686-6.9518-21.947-17.2088-43.473-25.7149-53.968-34.5724-42.656-101.9894-75.15-155.2164-74.809-47.271.301-73.232 11.596-97.569 42.452-25.215 31.967-35.93 36.907-89.564 41.299-23.511 1.925-47.539 6.565-68.512 13.234-33.152 10.539-77.434 42.446-102.316 73.726-9.044 11.37-17.567 23.862-18.177 26.643-.331 1.509-1.428 2.563-2.435 2.342-1.075-.236-.298-3.316 1.873-7.437Zm20.637 5.676c4.503-10.47 23.729-34.406 36.18-45.046 32.239-27.547 70.353-43.073 140.595-57.269 49.549-10.015 63.942-15.606 98.971-38.451 29.296-19.106 32.954-19.406 108.957-9.005 15.066 2.061 31.63 3.727 36.808 3.704 5.178-.024 17.502 1.68 27.386 3.784 30.864 6.578 41.255 17.82 54.5211 58.991 4.0846 12.681 10.4512 29.677 14.1482 37.773 18.4041 40.294 60.8083 67.2 103.9315 65.948 16.0581-.467 25.3709-2.521 57.7396-12.747 29.9566-9.465 36.8566-10.075 58.7076-5.188 19.156 4.282 28.41 8.713 45.265 21.673 36.641 28.176 67.849 73.203 79.649 114.913 5.14 18.17 8.576 45.88 6.643 53.59-1.049 4.18-1.488 2.92-1.707-4.92-1.614-57.69-33.501-119.156-81.496-157.082-22.31-17.631-23.937-18.501-45.066-24.108-24.108-6.395-30.905-5.891-64.7515 4.812-41.3237 13.069-54.5619 14.553-80.00138 8.969-28.89712-6.342-50.83552-20.173-69.64532-43.907-8.061-10.172-21.5577-40.542-25.0966-56.472-2.0249-9.114-10.3082-28.755-15.3592-36.415-11.739-17.802-25.772-22.97-74.507-27.436-19.023-1.742-47.047-5.037-62.272-7.319-38.887-5.829-44.425-4.666-77.899 16.35-33.141 20.809-44.569 25.189-88.999 34.108-33.415 6.708-65.317 15.254-85.496 22.907-21.922 8.313-53.245 28.325-68.451 43.734-12.246 12.408-24.982 29.621-26.275 35.512-.403 1.838-1.737 3.694-2.964 4.126-1.395.49-1.215-1.58.484-5.529Zm8.188 4.31c1.964-9.607 24.071-34.035 42.019-46.436 26.942-18.611 50.514-26.617 117.971-40.065 38.611-7.697 50.005-12.074 91.185-35.028 41.079-22.899 50.684-23.901 140.156-14.628 42.868 4.444 51.248 6.153 63.209 12.894 14.923 8.409 22.899 21.988 37.0246 63.036 17.7612 51.602 34.979 68.896 78.0884 78.429 32.4514 7.176 52.6731 5.85 120.872-7.921 45.746-9.237 82.026 8.804 119.022 59.187 29.104 39.632 39.482 71.112 38.643 117.222-.035 2.01-.766 3.5-1.619 3.31-.854-.18-1.329-4.18-1.058-8.87 1.131-19.55-3.304-43.42-12.125-65.23-5.291-13.08-26.288-46.368-37.903-60.086-17.137-20.24-44.997-39.737-62.226-43.55-11.684-2.588-49.1961.046-58.7377 4.124-5.0765 2.169-42.0622 7.673-53.9815 8.033-6.9433.21-15.9501.537-20.0153.727-4.0647.189-18.17417-1.947-31.3539-4.748-19.786-4.202-25.7154-6.241-34.0097-11.693-24.6304-16.184-32.4889-28.087-47.8189-72.427-19.102-55.254-27.989-62.845-79.475-67.885-15.599-1.527-40.571-4.08-55.496-5.672-44.473-4.748-64.871-1.191-97.543 17.004-49.215 27.408-53.625 28.998-110.815 39.908-49.566 9.454-68.198 15.974-95.246 33.324-20.168 12.938-33.094 25.471-43.727 42.398-4.24 6.749-5.757 8.146-5.04 4.643Zm15.563 1.321c3.958-9.56 15.071-22.634 25.82-30.373 11.635-8.379 51.955-26.761 66.097-30.135 10.021-2.391 19.433-3.241 59.181-5.334 28.423-1.497 41.423-6.615 75.494-29.714 43.135-29.243 58.72-32.571 128.531-27.441 23.629 1.735 46.297 2.92 50.376 2.63 4.081-.29 11.91.463 17.399 1.672 17.425 3.837 23.443 12.662 35.961 52.728 7.771 24.873 23.5264 51.656 37.3093 63.421 14.1928 12.116 35.3814 22.889 52.1453 26.51 12.8426 2.774 42.7108 3.969 74.7783 2.99 11.5162-.352 40.9345-4.525 58.0901-8.243 13.553-2.935 31.411-1.175 45.141 4.45 15.767 6.46 26.178 14.894 38.924 31.535 5.361 6.999 16.485 21.271 24.72 31.716 17.6 22.327 24.006 33.647 28.069 49.627 3.899 15.33 5.834 37.38 3.961 45.18-.989 4.13-1.786.18-2.376-11.79-1.722-34.97-6.508-47.96-27.815-75.5-7.905-10.22-19.599-25.575-25.991-34.124-6.392-8.549-15.832-19.103-20.978-23.453-8.629-7.293-11.07-8.281-31.305-12.666-20.229-4.384-23.067-4.502-36.244-1.513-15.4922 3.515-39.6285 6.668-58.0986 7.592-35.05691 1.753-43.567065 1.198-70.0587-4.573-23.2983-5.074-28.3618-6.82-37.5619-12.944-30.1983-20.107-43.0808-38.734-57.2058-82.697-13.018-40.524-18.944-46.446-46.858-46.841-18.531-.264-51.681-2.284-69.662-4.247-16.776-1.831-43.772-.77-56.354 2.216-16.241 3.855-30.301 10.996-60.173 30.559-32.607 21.356-45.155 25.305-84.617 26.627-31.691 1.061-42.387 3.022-65.524 12.009-28.748 11.165-48.873 23.774-58.712 36.786-16.657 22.031-15.587 20.886-12.463 13.34Zm15.74 3.979c6.88-14.88 12.799-22.629 21.113-27.639 15.388-9.279 27.149-11.774 64.08-13.601 25.916-1.282 50.249-3.29 57.473-4.741 33.518-6.74 49.157-13.442 89.977-38.563 40.471-24.907 52.709-29.05 85.285-28.87 15.169.085 28.131 1.776 51.256 6.695 28.091 5.971 31.745 7.188 39.536 13.143 8.859 6.774 21.252 24.948 40.338 59.151 11.8774 21.286 26.1404 38.243 41.7573 49.642 8.8668 6.472 12.7355 7.853 36.8253 13.149 35.31965 7.763 64.3356 8.27 136.3784 2.375 18.81-1.539 41.982 4.012 54.481 13.049 15.667 11.33 24.229 21.637 43.798 52.73 18.123 28.79 32.53 67.87 29.454 79.88-.727 2.85-1.144 3.05-1.469.72-1.812-12.87-8.856-38.41-13.528-49.04-7.785-17.7-33.531-57.164-44.825-68.701-24.665-25.195-37.265-28.197-98.3165-23.425-27.6925 2.167-92.5627.6-107.0731-2.585-11.8962-2.611-33.1714-12.846-43.7604-21.051-14.6704-11.369-26.756-27.448-44.434-59.126-8.886-15.926-19.268-32.285-23.069-36.355-15.484-16.584-35.988-23.256-80.289-26.125-46.612-3.019-56.136-.413-102.007 27.899-51.938 32.057-73.409 38.884-132.552 42.154-71.297 3.944-84.747 9.147-95.875 37.093-1.793 4.503-4.095 8.002-5.116 7.778-1.021-.224-.769-2.76.562-5.636Zm27.607 2.298c7.948-11.125 17.8-19.191 29.061-23.786 10.723-4.377 34.934-6.136 54.317-3.946 15.327 1.73 40.295.846 50.932-1.806 17.909-4.463 36.033-13.485 72.319-35.997 12.643-7.845 28.221-16.686 34.618-19.646 18.875-8.737 43.52-13.647 65.281-13.005 18.824.557 20.234.869 35.456 7.827 15.931 7.283 29.356 16.699 42.548 29.84 6.705 6.678 25.474 29.337 27.022 32.625 2.992 6.347 28.5462 34.587 38.2724 42.295 11.5427 9.145 13.1011 9.787 39.7747 16.347 15.2692 3.756 34.71635 7.283 43.2166 7.835 8.49982.555 24.6916 1.774 35.9814 2.71 11.2902.935 27.5601 1.798 36.1556 1.917 35.8233.495 55.6573 5.776 71.9273 19.149 28.566 23.483 59.57 67.583 65.859 93.693 3.804 15.78 3.917 17.35 1.199 16.76-.977-.22-1.842-2.61-1.922-5.31-.771-26.29-33.701-76.45-68.003-103.582-12.943-10.238-38.766-17.631-61.9084-17.729-8.3087-.035-19.7183-.482-25.3526-.999-5.6349-.514-17.6953-1.272-26.801-1.685-9.1056-.413-28.901319-2.4-43.9927-4.414-52.131-6.958-69.0381-16.898-102.7183-60.39-24.609-31.775-35.786-43.538-52.524-55.266-24.353-17.067-55.165-22.848-86.164-16.167-21.274 4.586-37.856 12.106-67.887 30.795-53.558 33.325-80.26 41.704-118.734 37.255-43.448-5.026-67.077 1.849-84.112 24.471-8.497 11.286-11.864 11.468-3.821.209Zm16.383 10.87c1.107-5.042 12.4-14.387 21.281-17.607 9.588-3.479 20.747-4.661 44.226-4.691 26.287-.032 40.969-.552 50.553-1.786 21.884-2.82 45.068-12.633 81.202-34.37 31.314-18.836 41.005-23.576 56.801-27.791 20.314-5.419 37.646-5.294 57.478.416 24.386 7.02 37.056 16.391 58.714 43.422 19.252 24.03 30.036 35.834 38.429 42.066 35.1109 26.071 74.6994 37.268 148.5785 42.013 28.4229 1.828 68.2145 11.925 84.1405 21.356 25.47 15.084 40.288 29.804 54.631 54.294 9.413 16.07 18.119 41.74 13.803 40.69-.784-.19-2.635-5.54-4.114-11.89-4.24-18.22-27.435-52.77-44.523-66.34-23.57-18.705-58.5622-31.939-89.2206-33.743-6.8096-.399-31.1973-2.843-54.19541-5.428-40.40329-4.541-42.52959-4.977-63.01029-12.879-37.5379-14.483-56.9787-29.63-84.7807-66.051-22.957-30.075-44.433-44.619-71.135-48.176-31.979-4.261-53.853 2.496-101.802 31.439-43.565 26.299-65.922 33.962-101.706 34.864-11.559.292-29.959.746-40.888 1.011-10.93.263-24.188 1.789-29.463 3.387-9.998 3.033-19.435 9.49-20.418 13.969-.315 1.435-1.592 2.968-2.838 3.407-1.246.439-2.03-.274-1.743-1.582Zm26.95 4.989c7.366-3.401 30.633-4.355 63.444-2.599 46.131 2.471 53.498.146 100.136-31.583 65.97-44.882 92.358-52.437 121.498-34.786 10.641 6.445 18.011 13.148 43.432 39.501 19.175 19.878 41.673 38.348 62.8684 51.614 16.6728 10.434 56.3337 19.387 86.626 19.554 70.3083.388 136.6806 27.882 165.6486 68.612 9.976 14.03 18.278 31.51 17.18 36.19-.338 1.45-2.307-1.98-4.374-7.62-7.317-19.96-26.728-43.92-46.191-57.02-20.487-13.79-35.7492-19.952-71.6858-28.96-27.9072-6.997-38.2774-8.819-49.30572-8.661-7.67988.109-24.32768-.508-36.99408-1.372-21.2969-1.452-24.3994-2.124-41.1736-8.926-30.7308-12.461-53.8978-29.697-91.0538-67.741-33.769-34.577-44.719-41.261-66.345-40.5-19.908.703-34.979 7.785-83.907 39.437-30.795 19.92-48.957 30.295-57.352 32.76-12.554 3.689-33.984 4.491-55.846 2.092-16.042-1.759-44.545-.958-50.926 1.433-6.681 2.502-11.543 1.284-5.679-1.425Zm33.714 8.631c2.69-2.781 14.713-2.804 33.549-.064 36.273 5.276 58.411.097 90.332-21.134 35.315-23.49 66.31-34.362 91.33-32.037 31.091 2.889 50.591 14.099 90.101 51.8 36.431 34.764 54.0187 41.087 112.5882 40.47 67.7203-.714 107.9816 10.768 143.4078 40.897 14.056 11.96 31.08 32.26 37.366 44.57 6.918 13.54 3.386 10.98-6.513-4.73-15.308-24.29-36.379-43.47-64.5867-58.82-18.785-10.215-62.6051-20.539-84.0148-19.791-49.3511 1.725-51.4392 1.621-76.4972-3.806-29.0873-6.296-32.8133-8.526-67.7213-40.496-38.497-35.259-48.3-41.2-75.814-45.947-30.916-5.334-49.512.409-98.084 30.296-35.806 22.029-55.782 26.872-89.404 21.67-10.563-1.634-22.499-2.404-26.528-1.714-8.542 1.468-11.684 1.082-9.511-1.164Zm72.805 17.084c1.372-.842 45.432-12.875 69.6-19.007 10.819-2.746 28.359-5.527 38.978-6.183 16.7-1.03 23.216-.341 48.233 5.1 29.683 6.456 41.448 11.418 64.086 27.024 19.521 13.457 53.526 49.914 49.167 52.704-.694.45-4.317-3.56-8.053-8.91-15.46-22.134-34.869-38.337-66.157-55.232-20.593-11.122-55.269-18.886-80.431-18.01-25.766.895-28.398 1.419-85.62 17.045-21.775 5.947-34.337 8.252-29.803 5.469Zm30.107 5.582c4.989-1.858 57.331-7.371 79.005-8.323 26.392-1.158 66.199 7.617 85.725 18.9 14.029 8.108 33.398 23.543 40.69 32.429 5.938 7.23.544 4.86-6.824-3-8.05-8.594-22.603-19.499-38.22-28.64-9.492-5.554-17.101-8.158-35.965-12.305-27.28-5.998-43.597-6.132-89.711-.739-29.706 3.474-40.993 4.019-34.7 1.678Zm40.118 8.51c2.054-.665 13.096-1.695 24.537-2.285 18.327-.95 24.351-.296 50.702 5.519 24.615 5.433 32.707 8.047 45.761 14.79 16.858 8.708 27.753 16.552 21.212 15.262-1.982-.38-5.753-2.48-8.381-4.66-8.906-7.382-36.583-18.255-59.072-23.208-21.988-4.843-47.47-6.394-63.463-3.862-4.491.709-9.711.922-11.6.474-3.166-.754-3.141-.914.304-2.03Zm60.932 13.988c5.881.866 14.853 2.839 19.938 4.385 5.082 1.546.268.835-10.698-1.576-10.966-2.413-15.124-3.677-9.24-2.809Zm164.4345 36.068c15.0567-19.11 19.3307-22.844 33.9982-29.688 23.9395-11.169 77.3116-5.827 104.6909 10.478 21.3316 12.7 51.6174 41.2 62.1234 58.46 6.261 10.28 2.809 8.61-6.249-3.03-18.168-23.36-36.6287-40.3-58.3555-53.57-23.1373-14.133-72.6098-20.072-96.1265-11.543-11.9429 4.334-26.4312 14.973-32.4262 23.813-2.7067 3.99-5.7729 7.06-6.8158 6.83-1.0408-.22-1.4194-1.01-.8395-1.75Zm27.7223.85c9.3308-11.42 21.2693-18.93 37.6569-23.675l16.45002-4.767 25.21218 5.532 25.2122 5.54 13.7851 11.4c13.2173 10.93 34.1114 39.02 32.9528 44.3-.2627 1.2-5.3917-5.53-11.3974-14.96-7.7148-12.11-14.9413-20.39-24.6335-28.22-13.4191-10.85-14.1844-11.19-35.6479-15.9-20.893185-4.59-22.66261-4.641-37.2929-1.07-16.6573 4.06-34.7647 14.48-40.0144 23.03-1.8143 2.96-4.1311 5.19-5.15 4.96-1.017-.22.2722-3 2.8669-6.17Zm21.8225 7.93c7.4454-8.67 22.5284-13.63 41.44847-13.65 14.10793-.01 16.56303.53 30.09973 6.58 8.1041 3.62 18.1209 9.72 22.2569 13.55 8.4989 7.87 16.7917 19.07 14.9819 20.23-.6621.43-3.6062-2.71-6.5402-6.96-2.9364-4.26-9.7575-11.18-15.1587-15.38-8.6135-6.69-12.3907-8.2-30.7419-12.29-18.92302-4.22-22.00899-4.37-32.3094-1.54-6.2633 1.72-14.2909 5.37-17.8399 8.1-7.1053 5.47-10.3354 6.18-6.1969 1.36Zm376.0117 84.67c-.492-1.4-.951-12.95-1.023-25.65-.108-19.68.974-28.11 7.333-57.08 13.751-62.648 37.328-106.806 66.264-124.106 12.282-7.343 20.418-9.892 54.066-16.951 31.898-6.689 46.42-12.882 76.651-32.688 36.621-23.992 45.686-26.021 87.251-19.525 31.407 4.906 34.085 4.332 56.952-12.216 19.757-14.299 36.742-18.561 80.864-20.288 55.715-2.182 65.826 1.696 95.316 36.561 7.451 8.808 17.216 18.428 21.7 21.375 7.335 4.823 8.794 5.187 14.538 3.62 8.02-2.183 15.756-7.583 32.678-22.805 24.155-21.73 62.601-41.761 102.969-53.651 30.38-8.945 84.45-12.335 137.47-8.619 20.27 1.421 23.59 2.138 35.34 7.652 25.68 12.044 38.66 31.056 49.07 71.842 5.34 20.914 9.19 31.102 15.37 40.592 11.19 17.196 39.75 40.624 41.24 33.836.2-.935-2.67-8.397-6.39-16.585-9.15-20.161-11.61-28.514-13.18-44.702-2.62-26.965 5.14-59.206 18.87-78.43 3.28-4.593 11.82-12.105 18.97-16.695 37.98-24.356 88.21-18.082 130.81 16.337 16.89 13.646 28.1 30.196 31.81 46.962 2.73 12.319 2.58 13.819-5.25 49.676-4.43 20.336-13.19 58.161-19.44 84.055l-11.38 47.083 4.43 7.3c2.43 4.02 13.7 14.81 25.04 23.98 16.34 13.22 22.73 19.97 30.81 32.53 15.78 24.56 20.13 50.97 13.37 81.34-5.9 26.5-18.53 46.74-44.53 71.33-20.15 19.05-27.8 30-30.89 44.2-3.1 14.27-.6 29.18 5.69 33.91 5.97 4.49 16.37.36 42.78-16.97 23.17-15.21 41.82-24.68 55.74-28.31 38.38-10.03 86.63-2.99 113.32 16.51 26.98 19.7 56.94 62.69 74.71 107.17 6.53 16.33 9.86 28.33 8.17 29.41-.67.43-2.08-2.56-3.15-6.65-9.61-36.77-42.2-92.35-68.5-116.84-17.92-16.68-28.32-22.06-53.29-27.59-18.13-4-26.26-4.81-38.87-3.84-33.25 2.56-45.9 7.33-86.91 32.77-17.16 10.65-33.06 19.06-36.23 19.15-8.48.26-13.62-4.87-16.34-16.29-2.11-8.85-1.81-12.59 2.12-26.9 2.52-9.15 4.34-16.46 4.05-16.25-4.63 3.3-17.57 19.75-18.85 23.93-3.97 13.05-3.47 16.76 3.91 28.79 7.07 11.53 7.9 12.2 18.01 14.42 12.03 2.64 15.78 1.65 47.97-12.68 11.56-5.15 27.45-11.15 35.33-13.34 50.39-14.05 102.68-7.18 129.87 17.07 8.93 7.96 23.14 30.06 29.19 45.39 8.46 21.44 13.57 35.93 13.23 37.51-.2.9.73 3.54 2.06 5.87 1.33 2.34 1.87 5.17 1.2 6.29-.67 1.12-3.4-4.84-6.06-13.25-14.59-46.08-28.06-70.08-47.39-84.49-11.82-8.81-33.62-16.02-54.49-18.01-34.19-3.27-59.89 1.8-103.09 20.38-16.76 7.21-34.13 13.28-38.59 13.49-12.18.58-21.16-4.2-28.98-15.41-11.98-17.18-9.66-32.23 7.91-51.07 22.21-23.83 27.92-30.76 35.28-42.84 7-11.46 8.48-16.05 15.42-47.64 6.72-30.64 7.49-36.75 6.22-49.3-3.46-34.21-11.08-47.59-37.09-65.12-29.14-19.64-33.2-32.78-23.32-75.495 2.91-12.607 10.66-37.981 17.2-56.39 11.29-31.774 11.94-34.422 12.75-52.282.47-10.347-.36-23.546-1.85-29.333-7.79-30.217-41.75-55.715-75.52-56.701-18.95-.554-38.1 4.444-51.86 13.529-17.62 11.632-23.68 19.95-29.44 40.425-6.04 21.499-4.93 36.384 5.01 67.023 11.3 34.846 8.43 41.373-15.1 34.411-31.15-9.213-50.31-32.464-63.77-77.383-5.77-19.268-12.89-32.09-22.29-40.141-6.58-5.637-9.9-6.721-41.09-13.433-34.93-7.513-57.09-9.298-98.58-7.936-54.13 1.777-89.664 16.132-142.331 57.506-17.52 13.762-22.959 16.488-34.842 17.465-9.327.766-11.616.251-21.775-4.913-6.245-3.172-19.043-11.728-28.44-19.013-31.176-24.167-39.734-28.703-61.713-32.721-17.094-3.124-21.111-3.116-33.731.081-7.878 1.997-21.573 7.672-30.43 12.612-31.892 17.784-44.564 20.841-75.562 18.237-56.149-4.718-64.265-3.192-105.634 19.85-29.943 16.679-36.63 19.492-64.577 27.168-35.564 9.769-46.871 15.187-61.727 29.584-10.927 10.588-25.919 31.956-35.711 50.895-8.784 16.985-24.608 56.815-27.168 68.385-2.642 11.94-4.096 44.17-2.466 54.7 1.401 9.05-.126 12.72-2.214 5.31-5.109-18.14 1.685-66.76 13.199-94.42 24.999-60.065 51.296-94.443 81.721-106.83 5.228-2.128 17.991-6.104 28.361-8.833 27.91-7.345 41.119-12.592 63.882-25.381 23.802-13.369 35.731-19.088 47.735-22.883 10.017-3.167 38.2-3.494 60.065-.698 18.328 2.346 38.434.995 50.251-3.377 4.77-1.763 16.708-7.686 26.532-13.161 9.823-5.476 25.198-11.827 34.165-14.115 15.695-4.004 17.054-3.989 36.482.426 21.674 4.923 27.869 8.23 57.315 30.6 23.525 17.87 25.86 19.398 34.854 22.809 15.578 5.909 24.121 3.989 43.1-9.691 55.279-39.843 75.039-50.397 107.919-57.64 25.14-5.54 69.03-6.363 114.89-2.156 29.84 2.737 42.45 5.541 57.53 12.79 19.76 9.495 24.25 15.851 35.63 50.389 4.23 12.861 10.97 29.064 14.98 36.009 9.31 16.136 28.32 31.854 45.36 37.507 19.77 6.563 23.02 1.993 15.27-21.498-13.21-40.068-14.61-61.702-5.58-86.22 15.91-43.204 79.12-62.489 121.01-36.917 27.56 16.819 39.04 34.202 41.49 62.779 1.3 15.239-7.1 57.053-14.51 72.201-7.21 14.738-18.3 53.818-20.08 70.76-2.55 24.28 3.88 40.43 19.77 49.68 21.93 12.77 32.49 23.88 38.57 40.57 6.17 16.92 7.62 35.05 4.89 60.86-2.77 26.1-10.99 52.32-21.99 70.13-3.55 5.73-6.16 10.86-5.82 11.4 1.45 2.27 26.24-24.65 33.84-36.76 7-11.14 9.02-16.58 13.1-35.16 6.88-31.36 3.95-52.66-10.67-77.44-6.9-11.68-14.77-19.69-36.04-36.67-9.29-7.42-18.75-16.6-21.01-20.4-6.21-10.45-5.47-23.61 2.78-49.264 3.82-11.898 12.39-45.414 19.03-74.481l12.07-52.849-2.74-12.276c-3.4-15.206-11.75-28.84-25.26-41.252-31.9-29.319-70.84-41.63-106.03-33.522-34.04 7.843-53.11 28.47-61.32 66.319-6.29 28.987-3.97 49.632 8.8 78.395 6.15 13.863 9.15 22.383 8.66 24.622-.61 2.77-12.56-2.011-21.38-8.55-22.5-16.688-33.38-34.345-40.63-65.987-7.2-31.371-16.93-49.822-33.95-64.364-8.12-6.933-10.59-7.902-31.76-12.437-22.76-4.874-27.45-5.118-82.66-4.281-45.62.69-83.18 10.288-127.955 32.688-20.084 10.051-28.733 16.023-50.467 34.856-16.958 14.691-28.491 20.706-36.383 18.974-6.698-1.47-17.93-11.106-30.026-25.76-5.683-6.885-15.431-16.985-21.664-22.448-10.811-9.47-12.054-10.045-27.033-12.448-8.635-1.385-21.388-2.322-28.338-2.08-61.011 2.123-75.099 5.203-96.923 21.187-22.8 16.701-25.607 17.167-67.714 11.274-32.793-4.588-37.824-3.257-75.745 20.059-36.807 22.628-42.041 25.023-66.616 30.467-49.608 10.99-55.287 12.81-67.983 21.783-25.958 18.347-45.186 54.445-59.679 112.035-6.719 26.71-8.047 35.24-8.824 56.71-.502 13.89-.284 26.55.483 28.12.769 1.57.784 3.88.036 5.14-.983 1.65-1.612 1.57-2.258-.28Zm29.322 4.4c-3.562-12.65-1.847-42.57 3.948-68.87 14.922-67.723 53.924-114.771 115.653-139.513 26.746-10.72 81.791-19.797 113.85-18.776 3.995.128 8.308-.239 9.584-.815 1.276-.577 5.605-1.017 9.621-.98 21.884.211 55.863-8.265 107.239-26.747 35.883-12.907 50.807-15.033 72.075-10.262 14.91 3.344 23.375 7.265 64.679 29.968 14.208 7.808 21.86 10.675 38.625 14.47 19.8 4.482 21.709 4.537 36.027 1.047 16.907-4.124 35.973-14.279 54.618-29.094 30.888-24.539 45.148-31.832 67.258-34.391 32.59-3.777 103.87 16.246 147.67 41.484 23.97 13.815 37.49 27.162 60.03 59.271 18.22 25.949 32.68 39.83 44.09 42.334 15.5 3.404 30.25-9.16 34.74-29.601 2.2-10.056 1.78-14.792-3.04-33.735-10.74-42.204-9.87-58.821 3.9-75.083 11.41-13.479 19.77-17.447 38.29-18.174 15.51-.608 17.9-.006 32.88 8.299 20.4 11.302 33.73 33.506 38.55 64.194 1.95 12.403 1.59 14.658-12.45 78.708-16.13 73.536-16.02 71.276-4.37 88.216 3.34 4.86 12.3 14.76 19.9 21.99 45.27 43.04 44.01 55.58-17.71 176.24-16.13 31.52-22.75 54.31-18.81 64.71 3.89 10.28 14.78 17.03 34.52 21.42 26.82 5.95 44.03 3.04 94.22-15.96 6.27-2.37 17.74-5.48 25.5-6.92 12.94-2.39 15.7-2.17 33.89 2.68 17.05 4.54 21.56 6.6 32.35 14.78 18.93 14.33 34.94 32.07 49.31 54.63 7.13 11.19 12.45 20.66 11.83 21.06-.62.39-6.99-8.41-14.16-19.57-24.98-38.86-55.2-64-84.72-70.48-14.98-3.29-27.22-2.07-46.87 4.67-64.15 22.01-72.9 23.49-101.57 17.2-16.27-3.57-20.83-5.36-27.42-10.73-18.77-15.3-15.34-30.61 24.52-109.29 23.24-45.87 34.15-74.54 34.09-89.61-.02-6.33-1.86-15.69-4.08-20.8-3.69-8.5-19.19-26.24-32.65-37.36-10.29-8.52-21.71-26.9-23.34-37.57-1.78-11.63 1.17-26.55 16.54-83.752 8.87-33.022 9.52-36.849 8.91-52.864-1.1-28.973-11.6-53.448-29.25-68.18-6.6-5.513-10.98-7.3-25.89-10.574-15.46-3.393-19.2-3.511-26.98-.854-12.05 4.11-19.05 9.667-25.38 20.136-10.62 17.577-10.8 27.752-1.14 65.315 5.64 21.921 6.01 25.746 3.58 37.434-2.25 10.77-4.02 14.434-10.29 21.207-9.99 10.8-15.62 12.899-27.56 10.278-14.27-3.131-26.85-14.327-43.77-38.927-19.23-27.975-25.62-35.487-40.56-47.744-15.36-12.601-25.01-17.949-57.17-31.675-20.03-8.553-31.58-12.125-59.69-18.454-31.09-6.999-36.24-7.659-47.61-6.104-24.82 3.389-36.4 9.426-75.456 39.33-44.749 34.266-79.849 34.901-136.628 2.476-20.452-11.681-42.454-21.841-51.914-23.971-17.937-4.04-40.608-.593-71.665 10.897-24.502 9.064-28.559 10.513-39.69 14.183-26.073 8.596-56.057 13.245-90.875 14.089-94.525 2.294-161.324 32.958-196.55 90.223-24.349 39.581-36.601 91.731-30.795 131.061 1.059 7.17-.688 9.63-2.434 3.43Zm8.333-4.03c-1.272-13.43.939-49.26 3.857-62.55 3.65-16.63 19.31-52.85 28.863-66.761 12.981-18.899 21.87-27.848 39.876-40.154 18.454-12.612 31.096-17.903 63.169-26.438 30.792-8.193 47.125-10.673 114.357-17.356 28.269-2.809 47.397-7.635 80.176-20.228 16.651-6.396 38.703-13.604 49.004-16.017 18.559-4.348 18.938-4.342 41.653.677 19.365 4.28 25.671 6.596 40.619 14.909 48.957 27.228 59.599 31.941 76.607 33.929 22.806 2.667 42.481-5.08 87.123-34.307 39-25.532 56.44-31.855 86.74-31.454 38.23.507 117.84 32.643 143.32 57.856 3.98 3.937 15.85 20.027 26.38 35.758 35.37 52.855 57.83 63.326 88.11 41.068 11.96-8.791 17.45-18.552 19.72-35.054 1.85-13.431-.3-24.256-9.26-46.489-7.21-17.906-8.27-27.452-4.25-38.392 8.24-22.453 26.03-32.734 48.2-27.868 24.09 5.287 37.53 25.976 42.28 65.075 2.9 23.828-3.66 54.038-18.01 82.951-10.35 20.875-15.43 38.225-14 47.895 1.53 10.38 15.54 28.47 37.17 48.01 36.17 32.66 39.29 41.63 27.05 77.71-3.51 10.38-6.91 19.4-7.53 20.05-.63.64-4.11 10.27-7.74 21.39-6.83 20.95-12.58 32.39-24.04 47.86-24.91 33.63-28.99 63.09-12.41 89.49 7.85 12.49 19.41 18.95 37.52 20.98 17.77 2 34.5-.47 78.64-11.59 45.68-11.5 59.36-12.18 78.92-3.9 12.3 5.2 31.33 19.68 46.38 35.26 10.99 11.39 27.16 33.85 25.24 35.09-.75.47-4.36-3.58-8.03-9.01-9.54-14.14-18.22-23.95-32.2-36.41-18.64-16.62-28.68-22.5-44.44-26.04-16.64-3.74-26.23-2.56-69.33 8.52-40.3 10.36-42.96 10.85-62.54 11.43-11.57.34-22.2-.82-34-3.71-16.06-3.94-17.5-4.69-22.5-11.75-16.11-22.75-19.96-23.84-39-11.07-6.77 4.55-12.1 7.31-11.85 6.14.76-3.46 23.01-16.85 28.27-17.01 2.65-.08 6.56.74 8.69 1.83 3.66 1.87 3.75 1.7 1.64-3.07-8.56-19.44-6.16-39.01 7.95-64.6 28.26-51.28 26.85-48.05 32.9-75.5 10.17-46.21 6.4-60.73-25.21-97.11-20.96-24.12-28.65-36.98-30.03-50.23-1.06-10.13-.68-11.83 6.13-27.43 3.99-9.142 9.32-20.41 11.84-25.041 9.41-17.285 15.73-38.226 18.32-60.733 3.75-32.426-.69-47.589-18.12-61.933-10.93-9.005-14.04-9.458-24.79-3.618-7.66 4.162-9.46 6.34-12.12 14.617-2.91 9.044-2.55 11.912 5.1 40.853l8.23 31.127-4 13.955c-4.88 17.073-15.3 30.838-32.69 43.223-16.02 11.4-27.52 12.58-43.49 4.48-6.03-3.06-15.91-9.764-21.97-14.897-11.38-9.646-14.29-10.185-8.03-1.489 6.99 9.706 15.94 16.546 29.83 22.776 16.2 7.28 18.99 10.47 22.53 25.86 1.43 6.19 7.36 19.02 13.19 28.52l10.6 17.27-.43 22.66c-.53 28.18 1.23 31.17 27.32 46.36 25.51 14.86 29.2 21.34 28.32 49.79-.28 8.91-.77 26.03-1.11 38.06-.33 12.02-1.61 26.5-2.84 32.19-2.64 12.21-11.9 31.35-20 41.33-6.56 8.09-28.38 26.21-30.9 25.67-.92-.2 4.01-5 10.95-10.68 16.19-13.24 23.02-21.73 29.52-36.68 6.67-15.36 11.74-47.32 11.12-70.11-.25-9.27.1-19.56.79-22.86 1.61-7.75-1.55-22.11-6.4-29.04-2.08-2.98-11.87-10.13-21.75-15.89-27.22-15.89-29.91-20.78-27.84-50.76 1.21-17.56-.41-22.7-13.26-42.03-4.04-6.07-8.46-16.09-9.82-22.26-1.37-6.17-3.75-12.92-5.3-15-2.45-3.28-22.68-13.51-24.49-12.39-.37.23 4.85 9.06 11.58 19.63 14.88 23.37 15.49 29.26 6.76 64.42-4.21 16.9-5.48 25.55-4.52 30.73 1.42 7.71 9.31 15.54 20.78 20.61 18.69 8.27 28.68 16.66 38.82 32.62 11.5 18.1 17.69 39.39 21.46 73.88 2.19 20-3.29 37.64-17.03 54.88-12.97 16.26-26.5 29.81-29.2 29.22-1.15-.25-.39-1.74 1.7-3.29 7.84-5.86 26.21-27.75 33.41-39.81 5.64-9.43 7.77-15.17 8.64-23.24 1.43-13.24-5.55-57.05-11.33-71.05-10.21-24.75-18.69-34.64-39.64-46.24-20.69-11.44-23.18-13.34-28.01-21.26l-4.4-7.24 6.88-31.33c5.73-26.12 6.54-32.63 4.85-39.11-4.14-15.94-14.99-30.42-51.47-68.698-13.43-14.096-30.85-32.558-38.7-41.028-30.56-32.953-64.9-56.287-98.38-66.841-32.81-10.346-56.77-5.868-92.54 17.297-24.03 15.559-26.96 18.374-47.743 45.861-5.225 6.914-9.693 10.711-13.219 11.235-2.96.444-15.097-1.921-27.354-5.325-18.677-5.189-24.65-6.02-39.242-5.472-23.378.878-37.941-2.589-53.559-12.746-6.91-4.495-13.3-9.098-14.201-10.23-.902-1.129-7.493-5.38-14.648-9.445-14.112-8.019-22.716-9.6-42.189-7.754-10.432.99-44.238 10.824-62.515 18.189-20.338 8.196-43.843 11.657-65.875 9.699-19.769-1.759-29.266 2.45-50.547 22.4-16.766 15.718-20.067 16.275-56.794 9.569-40.381-7.373-51.752-6.639-68.78 4.439-18.075 11.761-55.23 48.23-61.256 60.13-11.438 22.58-17.138 64.55-12.498 92.06 1.257 7.45 1.612 13.39.788 13.21-5.505-1.21-6.439-56.52-1.346-79.73 2.888-13.16 13.042-32.63 22.14-42.46 16.66-17.998 46.239-44.004 54.988-48.347 17.147-8.51 25.718-8.817 62.43-2.244 37.124 6.647 42.755 6.063 55.608-5.768 18.448-16.984 26.893-22.875 35.405-24.697 5.011-1.072 10.965-1.564 13.231-1.092 6.48 1.349 36.751-.12 45.289-2.198 4.251-1.035 22.433-6.739 40.404-12.676 39.452-13.033 52.483-15.497 69.779-13.196 13.906 1.85 22.035 6.085 50.641 26.383 14.65 10.393 33.576 16.465 41.285 13.244 5.083-2.124 4.729-2.338-8.828-5.314-15.207-3.337-31.272-11.748-54.659-28.609-33.843-24.403-57.246-24.524-105.859-.545-12.891 6.356-28.896 12.858-35.567 14.447-6.671 1.588-13.821 3.348-15.886 3.911-2.068.564-10.083.656-17.812.21-32.745-1.897-39.309-.775-54.465 9.33-27.112 18.075-41.1 21.107-75.908 16.462-30.033-4.007-39.77-2.676-54.623 7.469-37.696 25.748-65.11 65.27-74.259 107.05-3.39 15.48-4.945 47.44-2.717 55.8 2.145 8.05 1.387 10.99-2.403 9.32-4.877-2.15-7.151-26.27-4.647-49.31 1.257-11.55 2.25-22.89 2.206-25.21-.14-7.74 15.528-46.33 23.717-58.403 21.974-32.401 50.259-50.799 93.593-60.876 15.834-3.681 45.942-8.568 89.616-14.551 59.392-8.134 100.855-19.295 137.161-36.919 4.63-2.247 15.348-6.085 23.818-8.53 14.202-4.095 16.646-4.164 31.338-.866 16.37 3.675 29.733 9.46 63.942 27.681 52.221 27.815 55.469 28.974 76.588 27.284 17.724-1.417 28.973-5.972 49.782-20.153 47.6-32.438 61.64-40.486 78.39-44.934 9.15-2.431 22.78-4.507 30.27-4.615 17.08-.246 50.19 5.159 55.25 9.014 2.09 1.594 12.48 5.872 23.09 9.507 10.6 3.635 20.08 7.586 21.06 8.781.98 1.192 4.79 3.431 8.48 4.969 7.15 2.987 22.73 13.439 32.69 21.932 3.33 2.843 14.47 18.531 24.74 34.864 16.53 26.276 20.43 31.063 33.84 41.557 26.82 20.978 40.14 22.888 60.28 8.653 18.16-12.834 28-26.234 31.91-43.458 3-13.211 2.83-15.141-3.06-34.739-12.64-42.085-12.23-51.36 2.8-63.18 10.41-8.183 19.45-7.869 31.1 1.076 17.47 13.415 22.8 29.356 20.2 60.432-2.03 24.317-8.12 44.654-20.45 68.28-6.57 12.586-11.06 24.144-13.59 35.014-3.54 15.14-3.5 16.9.51 26.29 2.37 5.54 12.43 19.66 22.37 31.39 9.94 11.72 20.85 25.41 24.25 30.42 12.28 18.12 13.25 46.87 2.86 84.88-3.12 11.41-7.87 24.51-10.55 29.1-35.03 59.98-38.96 74.38-27.03 98.95 6.84 14.1 9.69 14.31 5.19.38-6.27-19.35-1.3-47.33 11.47-64.53 19.79-26.66 25.29-37 34.13-64.14 3.86-11.82 8.55-24.46 10.44-28.07 1.89-3.62 5.02-13.77 6.95-22.56 5.46-24.85 3.02-29.85-28.84-58.95-30.98-28.3-39.24-40.72-39.42-59.31-.08-8.25 11.66-40.996 16.91-47.143 1.57-1.84 5.32-11.105 8.33-20.588 17.53-55.128 1.3-111.139-34.49-118.995-8.49-1.863-21.76.736-28.55 5.592-6.42 4.587-16.08 18.42-17.56 25.128-1.61 7.343 1.38 22.219 6.76 33.635 11.36 24.101 12.75 44.995 4.27 64.063-9 20.198-30.48 33.038-50.74 30.329-9.99-1.339-12.9-2.774-24.44-12.027-10.26-8.224-17.58-17.162-33.7-41.119-26.01-38.665-40.14-50.953-73-63.458-8.48-3.23-16.18-6.733-17.1-7.787-.92-1.052-13.3-5.61-27.51-10.131-20.2-6.425-29.56-8.486-42.86-9.434-32.89-2.345-49.09 3.313-97.029 33.885-50.031 31.906-67.764 36.697-99.921 26.99-8.209-2.478-23.658-9.329-34.334-15.224-42.296-23.36-47.351-25.667-65.37-29.844-25.773-5.973-37.084-4.02-88.92 15.37-35.296 13.202-54.064 17.95-80.928 20.473-9.977.939-20.096 2.048-22.487 2.467-2.391.418-6.717.844-9.613.944-10.69.368-53.242 6.894-70.8 10.859-22.163 5.002-54.923 16.593-66.374 23.483-37.525 22.575-63.351 61.132-74.47 111.182-4.178 18.8-6.421 44.07-5.117 57.67.536 5.6.355 11.21-.402 12.48-.757 1.27-1.833-2.5-2.389-8.38Zm37.465 12.87c-7.392-18.65-9.49-42.47-5.383-61.18 6.867-31.29 37.373-74.838 60.807-86.809 9.613-4.91 27.559-9.043 41.167-9.48 14.987-.48 15.29-.406 37.835 9.36 13.916 6.026 25.259 9.841 29.256 9.839 8.246-.004 17.617-6.896 32.351-23.79 19.504-22.369 30.26-27.035 61.461-26.669 20.084.237 38.451-2.777 67.295-11.037 43.452-12.447 59.057-13.734 83.673-6.903 13.001 3.608 22.279 7.824 37.444 17.017 22.288 13.512 26.426 14.439 43.29 9.701 16.376-4.603 24.188-3.267 46.44 7.935 19.058 9.595 19.956 9.859 28.72 8.396 12.408-2.068 19.771-8.375 27.493-23.533 8.86-17.403 19.82-29.302 37.85-41.101 28.17-18.432 48.05-20.474 83.72-8.602 48.97 16.303 89.1 45.287 129.05 93.219 39.09 46.877 44.58 62.017 39.76 109.537-1.32 12.98-2.13 26.86-1.8 30.85 1.42 17.49 12.67 32.36 37.06 49.01 11.36 7.76 14.94 11.87 25.89 29.77 15 24.53 20.16 39.94 20.3 60.66.09 13.75-.48 16.52-6.01 28.86-8.23 18.36-29.7 43.4-36.03 42.01-1.16-.25.08-2.1 2.76-4.1 29.87-22.42 42.24-55.52 33.8-90.49-3.05-12.65-30.65-59.09-35.79-60.21-5.08-1.12-31.51-24.01-36.48-31.59-8.43-12.89-9.86-23.09-6.98-50.05 4.63-43.47 2.24-56.01-15.67-82.05-46.92-68.209-105.4-113.133-165.15-126.848-23.95-5.497-33.74-4.542-54.61 5.334-17.13 8.109-43.18 30.723-45.01 39.081-1.49 6.769-13.877 24.293-20.168 28.521-12.278 8.252-30.107 6.102-46.826-5.647-11.596-8.148-26.873-10.393-42.215-6.2-13.761 3.761-26.043 2.757-34.296-2.801-2.3-1.547-8.275-5.594-13.277-8.992-15.067-10.23-35.827-17.46-53.247-18.537-18.179-1.126-30.843 1.272-78.402 14.84-15.895 4.535-36.244 7.353-47.69 6.604-17.168-1.125-35.25 1.897-44.045 7.357-4.673 2.903-13.806 11.337-20.295 18.74-15.892 18.134-24.659 24.323-34.062 24.037-4.506-.137-16.495-3.755-29.429-8.883-18.67-7.402-23.915-8.748-36.279-9.316-38.733-1.778-70.399 22.707-93.853 72.58-3.347 7.11-6.977 17-8.071 21.99-3.248 14.8-.286 41.11 6.673 59.25 1.326 3.46 1.643 6.09.702 5.85-.941-.25-2.619-2.74-3.729-5.53Zm10.06.17c-13.405-30-12.946-55.18 1.51-82.55 8.094-15.33 15.234-24.35 32.731-41.35 16.917-16.434 30.956-23.491 49.815-25.034 14.577-1.194 14.827-1.144 29.032 5.803 7.883 3.854 21.658 8.664 30.612 10.69 19.728 4.461 24.759 2.81 39.015-12.795 15.277-16.723 25.909-22.601 44.006-24.328 4.696-.447 9.585-1.295 10.864-1.883 1.278-.589 5.216-1.054 8.75-1.035 10.296.055 28.14-3.576 55.617-11.316 61.755-17.393 85.914-16.442 133.338 5.251 23.804 10.89 27.298 11.59 55.699 11.172 20.52-.302 24.675.212 32.752 4.048 5.088 2.415 15.26 5.711 22.602 7.323 12.022 2.639 14.244 2.473 22.314-1.67 10.022-5.147 12.132-7.846 22.632-28.988 11.66-23.474 28.98-38.417 55.09-47.525l13.58-4.737 26.92 5.909c24.18 5.308 28.61 6.894 43.6 15.604 17.69 10.282 52.86 35.434 70.45 50.388 15.25 12.962 31.16 30.956 41.26 46.663 13.5 21.01 15.79 32.89 17.01 88.52.69 31.62 7.6 53.03 22.06 68.41 3.9 4.15 14.24 13.55 22.98 20.89 26.23 22.06 35.33 40.29 35.01 70.15-.15 12.99-.92 16.4-6.99 30.71-6.25 14.75-19.54 33.55-30.48 43.13-7.32 6.41-4.9.83 3.29-7.55 17.64-18.09 23.36-28.39 28.48-51.34 4.42-19.78 4.48-21.87 1.07-35.76-4.67-19.04-14.24-32.3-36.46-50.5-20.92-17.15-34.25-35.92-38.02-53.55-2.73-12.77-3.99-29.77-4.57-61.56-.2-10.99-1.98-25.9-3.94-33.14-8.15-30.04-36.27-62.771-83.47-97.161-37.07-27.008-54.79-36.017-82.73-42.051-27.36-5.908-36.86-4.219-60.15 10.707-17.45 11.182-23.44 18.035-31.97 36.573-9.99 21.744-21.842 32.259-36.456 32.354-4.895.032-15.815-2.562-27.86-6.621-18.827-6.342-20.988-6.649-43.59-6.198-26.09.521-26.234.481-63.842-16.851-20.839-9.604-29.29-11.648-48.993-11.851-17.855-.18-32.737 2.042-55.785 8.341-40.112 10.958-51.104 13.368-70.262 15.398-35.988 3.815-46.649 8.222-60.992 25.213-4.102 4.859-9.776 10.448-12.61 12.42-10.212 7.107-27.059 5.097-55.475-6.615-19.58-8.068-31.075-9.659-44.76-6.195-25.871 6.55-60.083 40.887-73.548 73.817-8.854 21.66-7.702 46.65 3.185 69.09 2.657 5.48 3.98 9.77 2.941 9.55-1.041-.23-3.408-3.81-5.262-7.97Zm10.927-.74c-10.632-19.21-11.637-26.3-7.213-50.89 5.07-28.17 13.116-42.89 32.198-58.9 26.611-22.317 49.935-29.034 73.529-21.175 50.065 16.675 56.072 16.685 84.402.12 32.932-19.258 58.411-26.529 119.831-34.2 58.923-7.359 71.296-6.912 134.787 4.867 70.105 13.006 102.927 18.663 111.309 19.185 7.827.488 21.489-6.461 28.199-14.346 2.56-3.01 10.32-13.72 17.24-23.798 34.77-50.671 54.31-57.249 103.26-34.769 18.65 8.562 42.47 21.537 45.25 24.651.93 1.03 3.78 3.026 6.35 4.435 6.85 3.762 15.3 9.906 34.24 24.902 20.32 16.088 33.36 34.988 45 65.248 10.56 27.43 11.71 38.22 6.6 61.54-3.36 15.29-3.7 20.79-1.8 28.95 3.43 14.68 26.59 48.92 44.91 66.38 31.26 29.8 36.68 40.14 34.54 65.94-2 24.2-9.89 44.96-23.48 61.78-5.73 7.1-11.14 12.74-12.01 12.55-.88-.19 3.75-6.95 10.28-15.02 11.61-14.33 12.03-15.22 17.96-38.47 3.56-13.94 5.91-27.4 5.66-32.49-.56-11.89-9.73-27.61-24.48-41.94-24.66-23.97-28.42-28.33-40.87-47.55-17.36-26.81-19.06-34.96-13.73-65.86 4.13-23.94 4.12-24.4-.98-40.16-7.14-22.01-16.72-42.45-25.98-55.368-16.53-23.089-72.73-61.808-115.21-79.383-26-10.753-38.29-12.154-52.17-5.944-10.74 4.801-25.55 19.015-35.51 34.062-18.12 27.384-21.92 32.077-32.33 39.959-14.098 10.668-17.262 10.478-104.789-6.277-62.965-12.055-81.69-14.977-95.99-14.981-22.048-.007-41.059 1.158-50.106 3.072-3.799.804-7.946 1.234-9.216.955-4.206-.923-62.787 9.336-77.944 13.652-20.563 5.851-26.118 8.286-45.891 20.115-23.097 13.818-33.609 15.918-55.432 11.058-9.342-2.07-22.158-5.93-28.48-8.57-20.915-8.745-43.572-4.668-66.291 11.92-22.538 16.46-31.454 29.21-38.725 55.38-6.987 25.13-5.367 39.67 6.548 58.83 4.454 7.17 6.907 12.77 5.449 12.45-1.455-.32-5.467-5.68-8.915-11.91Zm15.32 2.65c-6.137-8.72-10.12-17.65-12.906-28.92-3.832-15.52-3.814-17.06.363-31.67 5.021-17.56 14.884-30.83 34.937-46.99 25.504-20.55 39.632-22.3 71.415-8.82 38.146 16.17 42.086 16.09 68.364-1.54 16.768-11.24 32.032-16.994 60.159-22.664 38.058-7.672 72.714-12.265 127.653-16.912 34.519-2.921 77.366 2.345 134.999 16.593 33.728 8.337 36.679 8.759 48.993 6.992 19.625-2.816 40.665-19.114 57.905-44.877 7.3-10.904 19.05-24.434 23.47-27.023 9.02-5.28 21.24-7.903 34.63-7.431 44.35 1.559 108.38 44.33 140.08 93.572 12.04 18.7 15.63 32.27 16.01 60.34.14 10.87.35 24.96.45 31.32.33 19.78 3.46 35.63 9.49 47.93 5.98 12.21 22.83 31.24 40.18 45.39 13.98 11.38 25.4 25.36 30.27 37 4.1 9.84 4.08 10.32-1.39 35.27-4.73 21.56-6.73 27.22-13.43 38.23-7.98 13.08-18.3 25.47-17.27 20.74.3-1.41 3.08-5.65 6.16-9.41 18.63-22.71 30.54-63.73 23.85-82.1-4.46-12.23-14.18-24.16-31.88-39.11-40.53-34.24-49.17-54.46-48.93-114.48.11-28.43-1.98-42.45-8.42-56.53-19.92-43.567-80.61-91.813-128.8-102.392-36.58-8.027-49.56-2.283-73.62 32.566-15.57 22.558-31.8 35.932-51.835 42.716-8.903 3.02-9.972 2.87-75.118-10.086-68.575-13.638-76.483-14.473-116.437-12.287-17.955.983-76.784 7.478-85.679 9.459-2.418.539-10.743 2.044-18.501 3.347-7.758 1.302-18.291 3.273-23.407 4.381-5.117 1.107-9.694 1.927-10.173 1.822-4.568-1.003-34.69 11.824-49.917 21.254-10.517 6.51-21.632 12.22-24.696 12.67-8.36 1.25-25.256-3.06-36.599-9.34-14.647-8.1-40.152-13.6-48.808-10.52-18.015 6.42-42.023 26.31-54.887 45.49-14.468 21.57-11.978 49.48 6.771 75.84 5.378 7.56 8.797 13.53 7.603 13.27-1.194-.26-6.168-6.15-11.049-13.09Zm28.573 11.8c-12.675-9.57-24.511-27.07-28.319-41.89-6.614-25.74 5.729-53.7 32.073-72.64 6.128-4.41 15.999-9.27 21.936-10.81 9.874-2.55 12.561-2.33 31.559 2.58 11.421 2.96 27.929 7.03 36.683 9.04l15.917 3.66 27.451-10.8c49.963-19.65 94.555-28.108 153.75-29.157 19.953-.356 42.504-1.344 61.202-2.685 52.047-3.733 60.919-2.826 119.584 12.232 25.213 6.47 25.963 6.54 37.934 3.34 6.717-1.8 17.869-6.8 24.789-11.114 12.05-7.512 17.95-12.607 41.04-35.425 13.17-13.015 33.27-25.943 45.2-29.07 12.55-3.292 33.93 1.355 49.15 10.683 54.08 33.148 89.32 78.006 94.72 120.566.9 7.11.95 18.9.1 26.2-2.45 21.08-1.95 46.92 1.07 55.56 1.53 4.37 5.03 10.87 7.77 14.45 5.44 7.09 29.49 29.74 49.05 46.2 6.79 5.71 14.91 14.8 18.03 20.19 10.13 17.47 9.24 44.08-2.35 70.34-7.04 15.93-18.42 33.52-21.34 32.97-.81-.16 1.68-4.61 5.55-9.89 17.81-24.34 26.64-64.05 18.94-85.18-3.69-10.16-6.69-14.09-18.66-24.48-5.31-4.61-12.79-11.24-16.62-14.72-3.83-3.49-11.31-10.12-16.62-14.73-27.87-24.24-32.78-40.15-27.85-90.33 3.46-35.22-6.02-62.19-33.25-94.616-6.52-7.764-20.19-20.777-30.38-28.918-55.67-44.483-78.92-43.547-128.99 5.2-22.56 21.961-42.44 35.144-58.958 39.094-11.929 2.85-19.481 1.62-73.667-11.943-25.314-6.335-37.045-7.151-68.967-4.785-21.193 1.57-43.428 2.793-64.526 3.547-63.418 2.265-84.544 4.561-114.614 12.481-12.231 3.22-32.76 9.92-45.617 14.9-31.569 12.22-41.43 13.97-53.75 9.57-5.33-1.91-19.159-6.01-30.734-9.13-19.605-5.28-21.797-5.47-32.038-2.81-12.772 3.31-27.404 13.43-38.641 26.72-6.033 7.13-8.953 12.98-12.274 24.55-3.937 13.73-4.055 16.32-1.23 26.96 5.293 19.92 15.993 34.26 34.758 46.57 6.709 4.4 8.397 6.2 5.077 5.43-2.734-.63-9.006-4.19-13.938-7.91Zm63.98 13.22c29.636-6.84 62.683-37.54 62.904-58.43.038-3.63-2.357-14.4-5.325-23.93-2.967-9.52-4.83-19.89-4.141-23.03 2.027-9.23 5.526-10.78 78.919-34.82 11.483-3.77 22.303-5.34 38.679-5.65 12.504-.23 24.695.01 27.092.53 7.88 1.73 47.992.1 79.826-3.25 76.851-8.077 100.647-6.82 137.595 7.25 18.19 6.93 28.579 6.71 45.55-.99 14.16-6.43 21.12-5.64 26.24 2.94 4.71 7.93 2.3 23.84-7.84 51.71-9.16 25.18-18.31 37.54-43.513 58.76-17.996 15.16-35.66 35.57-56.878 65.72-6.672 9.48-16.271 27.53-20.45 38.44l-3.696 9.66 1.773-9.26c4.376-22.87 46.262-80.47 78.474-107.91 21.85-18.62 23.72-20.65 32.28-35.17 7.54-12.8 19.55-48.01 19.91-58.39.29-8.54-4.54-17.75-9.93-18.93-2.09-.46-8.21 1.38-13.6 4.08-20.054 10.08-31.77 9.7-61.944-2.01-23.611-9.17-61.063-10.35-117.791-3.72-30.452 3.57-57.732 5.08-76.322 4.25-51.817-2.33-60.756-1.32-92.206 10.47-10.627 3.99-25.362 9.06-32.744 11.26-16.26 4.87-26.342 10.51-27.404 15.35-.435 1.98 1.976 12.42 5.356 23.21 6.855 21.88 6.195 32.35-2.845 45.26-14.925 21.3-52.111 43.85-66.945 40.58-2.506-.55 1.157-2.17 8.976-3.98Zm28.185.1c20.606-14.86 37.075-34.59 44.193-52.94 3.249-8.38 1.714-19.05-5.856-40.74-1.741-4.99-3.048-9.68-2.904-10.43.8-4.11 16.085-10.47 30.043-12.48 19.571-2.83 26.098-4.35 50.755-11.84 29.368-8.92 40.904-10.09 89.52-9.05 42.079.89 51.557.74 67.116-1.07 42.227-4.91 43.364-4.86 83.845 3.66l37.957 7.99 20.541-3.12c39.844-6.05 43.244-.59 23.944 38.41-12.743 25.76-19.556 34.77-44.567 58.96-28.596 27.65-61.414 75.16-73.412 106.29-1.739 4.51-4.041 8.01-5.116 7.78-1.073-.24-1.177-1.61-.233-3.05.947-1.44 3.046-5.92 4.664-9.97 3.953-9.88 20.107-38.69 22.762-40.6 1.166-.84 2.431-2.92 2.811-4.62 1.331-5.98 26.296-37.46 41.797-52.71 30.667-30.18 37.174-38.92 52.054-69.97 8.93-18.64 9.99-23.84 5.72-28.04-3.19-3.13-18.752-2.63-38.557 1.25-9.692 1.89-14.908 1.3-46.401-5.28-38.145-7.98-45.916-8.46-78.848-4.95-22.467 2.39-40.983 2.79-86.724 1.87-38.627-.78-44.638.05-91.027 12.6-20.889 5.66-36.113 8.69-39.668 7.91-1.27-.28-1.917.11-1.437.86 1.246 1.96 25.389 2.72 36.886 1.18 5.33-.72 18.275-4.4 28.765-8.19 24.025-8.66 34.107-9.2 67.52-3.61 36.278 6.06 60.575 5.1 98.403-3.91l17.642-4.2 33.76 8.07 33.76 8.07 16.335-3c19.936-3.67 31.661-4.09 37.181-1.34 9.09 4.53 4.95 13.33-17.918 38.06-18.156 19.63-34.122 40.83-50.089 66.5-7.567 12.16-15.64 25-17.944 28.52-9.493 14.54-23.624 39.49-31.384 55.42-3.171 6.5-6.661 11.63-7.76 11.38-1.117-.24-1.031-1.84.195-3.62 1.206-1.75 4.469-7.87 7.253-13.59 6.532-13.43 30.75-54.19 49.374-83.11 16.82-26.11 29.976-43.27 50.823-66.27 8.122-8.96 15.94-19.26 17.38-22.89l2.61-6.59-8.888-1.95c-5.754-1.27-15.094-.74-26.521 1.51-9.702 1.9-19.306 3.12-21.341 2.7-6.128-1.23.284 3.42 9.674 7.03 24.237 9.32 23.426 16.67-4.611 41.64-21.628 19.26-27.866 28.66-41.709 62.82-6.6 16.29-15.392 34.99-19.538 41.57-10.394 16.49-23.793 35.19-26.583 37.1-3.31 2.26 1.318-5.8 10.148-17.67 10.14-13.63 25.796-41.4 29.948-53.11 7.824-22.07 17.72-42.82 24.417-51.19 3.92-4.9 14.567-15.49 23.66-23.53 24.61-21.77 23.988-27.67-3.998-37.96-25.612-9.42-49.011-9.56-88.486-.53-54.819 12.55-58.436 12.64-96.185 2.43l-26.051-7.05-21.66 5.19c-15.196 3.63-26.66 4.92-38.424 4.3-17.473-.91-29.727-.1-34.708 2.3-3.856 1.85-5.795 11.37-5.96 29.21-.116 12.89-.924 16.5-6.998 31.34-3.774 9.22-9.143 20.62-11.93 25.33-7.479 12.63-22.968 32.9-24.83 32.49-.89-.19 1.69-4.44 5.731-9.43 10.96-13.53 22.346-33.62 29.024-51.2 5.136-13.52 6.007-18.23 6.43-34.77.451-17.69.814-19.44 4.804-23.36 2.375-2.33 5.643-3.94 7.262-3.59 1.619.36 3.143-.25 3.384-1.35.618-2.81-4.907-3.43-17.202-1.91-12.985 1.61-17.052 5.06-14.439 12.24 11.293 31.02 6.07 54.84-18.731 85.43-9.749 12.02-23.278 24.21-26.17 23.57-1.182-.26 1.239-3.26 5.378-6.67 35.107-28.92 50.269-67.54 38.16-97.19-2.857-7-1.731-14.82 2.528-17.55 2.269-1.46 2.387-1.99.526-2.4-3.196-.7-11.977 5.05-12.693 8.32-.314 1.43 1.971 9.23 5.075 17.34 5.29 13.82 5.453 15.63 2.571 28.73-3.431 15.61-10.784 27.5-26.368 42.65-11.157 10.85-28.618 23.82-31.278 23.24-1.091-.24 3.777-4.59 10.818-9.67Zm37.219 16.39c1.282-2.4 6.816-10.35 12.294-17.66 15.003-20.03 20.303-31.72 23.574-51.99 2.534-15.72 3.482-18.23 9.24-24.48 13.154-14.29 35.017-19.04 78.522-17.05 7.398.34 19.605.43 27.126.2 9.355-.28 24.101 1.74 46.672 6.38 37.48 7.72 40.872 7.56 61.499-2.92 19.224-9.77 30.555-12.34 42.995-9.73 8.921 1.88 11.22 3.26 14.834 8.91 4.103 6.42 4.098 7.44-.152 25.1-2.437 10.12-6.455 23.14-8.93 28.93-2.475 5.8-7.791 21.12-11.812 34.06-8.389 26.99-16.01 41.06-33.876 62.54-10.197 12.27-13.59 15.08-17.515 14.54-4.008-.56-4.407-1.2-2.254-3.64 1.439-1.63 9.845-12.21 18.684-23.51l16.069-20.55 6.853-31.23c9.583-43.66 8.039-53.85-9.631-63.62-8.245-4.57-10.859-5.11-24.155-5.04-8.199.04-15.951.55-17.226 1.12-1.276.58-9.547 1.84-18.38 2.8-12.515 1.37-22.199.73-43.861-2.87-21.805-3.64-31.136-4.24-43.278-2.79-8.513 1-25.895 2.55-38.624 3.43-31.001 2.14-34.718 4.91-44.129 32.92-3.67 10.92-6.61 21.58-6.532 23.68.083 2.3.761 1.44 1.694-2.15 3.935-15.13 20.715-27.88 48.757-37.05 45.694-14.94 47.985-15.25 84.377-11.34 52.821 5.67 65.71 8.35 77.679 16.18 20.176 13.18 29.131 35.2 23.938 58.86-1.533 6.98-5.063 16.22-7.846 20.53-17.274 26.75-29.463 43.31-31.534 42.86-1.49-.33 3.758-8.38 11.34-17.41 2.451-2.92 4.628-6.07 4.841-7 .211-.93 2.266-4.25 4.566-7.37 14.334-19.48 19.623-35.01 17.166-50.44-4.436-27.84-23.904-44.29-57.339-48.43l-14.174-1.75 14.009 8.06c17.175 9.88 36.776 27.46 42.791 38.38 11.202 20.34 3.058 48.37-20.979 72.22-6.674 6.62-12.482 11.49-12.907 10.83-.425-.67 2.365-4.17 6.195-7.78 28.149-26.55 37.486-55.63 24.252-75.54-12.218-18.38-42.947-40.28-62.625-44.63-13.724-3.04-34.278-2.09-55.448 2.57-43.963 9.66-68.46 25.28-101.88 64.98-7.573 8.99-14.309 16.23-14.971 16.08-.663-.14-1.802-2.51-2.527-5.26-1.14-4.31-1.307-4.41-1.209-.72.083 3.19-.934 4.15-3.94 3.72-2.23-.31-3.989-.87-3.907-1.24.08-.37 4.161-5.68 9.065-11.8 8.407-10.48 14.775-23.91 26.955-56.82 2.563-6.93 4.82-13.19 5.018-13.92.836-3.09 14.185-11.71 19.347-12.5 3.08-.47 13.683-1.27 23.564-1.76 9.88-.5 24.767-1.91 33.083-3.14 12.564-1.85 20.238-1.4 45.398 2.66 28.879 4.66 31.555 4.72 57.856 1.27 31.316-4.09 40.726-2.92 52.329 6.54 6.07 4.95 8.553 9.02 10.67 17.53 2.602 10.43 2.345 12.98-4.443 44.05l-7.205 32.97-16.774 21.02c-20.026 25.1-22.224 32.67-2.598 8.96 18.214-22.01 24.977-34.68 32.377-60.63 3.401-11.93 8.617-26.8 11.591-33.06 2.977-6.26 7.214-19.54 9.419-29.51 3.704-16.74 3.71-18.56.082-23.87-8.025-11.74-26.5-11.04-52.246 1.99-22.113 11.19-28.742 11.61-63.706 3.98-19.383-4.22-35.141-6.55-43.861-6.48-7.486.06-21.068-.2-30.183-.56-31.561-1.29-45.041-.31-56.899 4.12-21.016 7.85-25.374 13.77-29.587 40.17-2.639 16.54-10.066 32.55-21.372 46.07-2.14 2.56-4.024 5.24-4.188 5.95-.162.71-3.458 4.7-7.323 8.87-3.866 4.16-5.978 5.61-4.695 3.21Zm36.141-2.38c35.976-40.94 70.954-60.61 116.43-65.47 9.935-1.06 18.569-.23 36.06 3.48 21.606 4.59 23.701 5.42 34.609 13.8 26.792 20.55 33.861 51.03 17.08 73.63-6.211 8.37-31.813 26.53-36.074 25.59-1.324-.29 4.025-4.44 11.884-9.22 15.393-9.37 27.997-23.5 30.294-33.97.765-3.48-.034-12.43-1.774-19.89-5.72-24.52-24.8-40.6-56.393-47.54-36.257-7.95-73.721.35-109.749 24.35-11.682 7.78-46.962 41.26-47.879 45.44-.314 1.43-1.546 2.39-2.737 2.12-1.19-.26 2.521-5.8 8.249-12.32Zm1.727 11.9c31.8-33.38 64.178-55.66 89.97-61.93 22.497-5.47 34.868-5.18 58.83 1.4 37.171 10.19 60.696 33.14 55.983 54.61-2.155 9.82-15.334 24.52-30.632 34.17-8.147 5.13-15.675 9.15-16.73 8.92-1.055-.23 5.624-5.19 14.842-11.01 31.782-20.08 38.65-41.29 19.499-60.24-14.234-14.08-25.904-19.96-50.459-25.42-24.694-5.49-32.843-5.25-56.041 1.7-21.842 6.53-56.254 30.58-78.752 55.04-2.865 3.11-5.967 5.49-6.892 5.29-.924-.2-.752-1.34.382-2.53Zm22.366 6.25c.146-.66 8.01-7.65 17.472-15.53 36.535-30.42 63.073-42.28 88.491-39.55 24.799 2.67 44.779 13.28 55.846 29.68 10.883 16.12.082 27.01-35.568 35.87-23.599 5.87-44.406 9.27-47.049 7.7-1.181-.71 7.536-2.85 19.372-4.75 37.543-6.04 63.009-16.32 65.203-26.32 1.245-5.67-6.003-15.92-17.154-24.26-7.982-5.98-14.46-8.85-28.676-12.72-18.019-4.9-18.676-4.91-34.956-.87-18.966 4.72-42.643 18.98-66.002 39.75-12.742 11.33-17.764 14.58-16.979 11Zm13.479 1.61c5.613-6.06 27.238-23.31 41.087-32.77 19.929-13.62 34.043-17.23 51.991-13.29 19.619 4.31 40.613 21.46 38.43 31.41-1.645 7.5-11.337 9.67-61.549 13.79-17.279 1.43-31.284 4.36-37.663 7.89-2.215 1.22-5.094 1.59-6.398.81-3.199-1.91 15.497-7.82 32.272-10.21 14.972-2.13 42.001-4.44 44.778-3.83 3.606.79 20.673-3.75 24.071-6.4 7.701-6.01-16.334-27.5-35.457-31.7-15.294-3.36-26.857.06-48.663 14.37-11.415 7.49-25.461 17.92-31.212 23.18-5.752 5.25-11.188 9.41-12.08 9.24-.893-.17-.716-1.29.393-2.49Zm229.532 44.49c4.801-24.68 17.678-43.75 50.375-74.58 58.045-54.74 76.555-85.65 76.085-127.08-.09-7.76-.9-16.91-1.81-20.31-2.49-9.36-.84-13.351 11.9-28.764 24.95-30.195 44.66-42.524 65.2-40.795 42.37 3.563 99.54 62.529 114.54 118.149 3.87 14.34 3.83 28.92-.15 54.7-3.43 22.2-3.52 26.63-.68 33.36 6.04 14.3 14.24 23.55 37.68 42.51 25 20.21 36.97 32.26 41.61 41.89 5.14 10.66 6.7 27.7 3.76 41.1-3.76 17.17-21.43 51.1-26.06 50.08-1.59-.35 1.35-5.73 4.65-8.53 3.2-2.71 17.66-33.97 19.42-41.97 2.18-9.94.66-28.07-3.04-36.39-5.37-12.07-12.22-19.26-39.87-41.86-29.98-24.51-42.26-39.96-42.88-53.96-.19-4.34 1.12-18.87 2.92-32.3 5.49-40.97 2.07-56.07-20.85-92.08-24.8-38.949-54.35-63.694-83.78-70.153-13.34-2.929-16.38-2.863-25.74.551-12.76 4.661-30.48 19.749-46.29 39.427-11.41 14.205-11.61 14.635-9.98 21.895 4.14 18.48 2.9 43-3 59-4.63 12.59-15.06 32.96-18.19 35.54-1.1.91-3.1 3.6-4.43 5.97-3.78 6.69-23.496 27.85-41.624 44.66-34.712 32.17-45.364 46.14-55.282 72.47-4.971 13.19-5.9 14.74-4.484 7.47Zm6.364 4.15c3.42-7.25 14.482-22.05 25.48-34.08 5.091-5.57 13.112-15.41 17.818-21.86 20.708-28.4 32.207-42.45 48.548-59.35 28.94-29.91 30.02-31.87 34.88-63.31 5.95-38.52 10.8-59.61 15.77-68.621 6.52-11.804 28.02-25.938 44.81-29.454 34.49-7.227 60.78 10.323 91.92 61.375 23.16 37.94 25.63 49.14 18.26 82.72-4.74 21.62-4.91 24.48-2.11 36.71 5 21.82 14.17 33.82 48.1 62.95 18.68 16.03 29.83 32.48 33.48 49.35 2.41 11.21 2.18 13.98-2.86 33.38-4.37 16.85-6.72 22.58-11.54 28.2-7.67 8.91-7.09 5.02 1.04-7.11 8.77-13.07 13.84-36.82 10.94-51.26-4.38-21.78-14.12-35.45-41.31-57.94-19.92-16.47-31.53-30.7-37.43-45.85-6.19-15.9-6.32-30.83-.48-55.75 5.35-22.84 4.83-28.04-4.94-49.49-12.66-27.77-35.91-59.091-55.87-75.248-17.1-13.849-43.87-14.396-66.65-1.364-23.61 13.511-29.96 26.396-35.51 72.032-5.5 45.27-6.96 48.15-43.92 86.68-8.45 8.8-20.298 22.7-26.335 30.87-6.035 8.17-21.665 28.04-34.73 44.14-13.067 16.1-24.207 31.33-24.757 33.83-.55 2.51-1.915 4.36-3.032 4.11-1.193-.26-1.015-2.6.428-5.66Zm13.615 5.23c-1.005-8.91 12.216-30.6 30.2-49.54 7.857-8.28 16.547-18.09 30.277-34.2 7.031-8.24 21.254-24.19 31.604-35.43 10.36-11.25 21.5-24.19 24.77-28.77 7.34-10.27 12.15-30.56 10.82-45.66-.51-5.87.5-17.9 2.25-26.73 2.59-13.03 4.33-17.38 9.23-23.11 19.57-22.791 53.31-27.844 78.45-11.741 32.24 20.661 52.37 64.911 53.12 116.791.88 60.13 3.71 67.26 38.07 95.77 20.39 16.92 31.87 32.77 36.99 51.07 3.38 12.09 3.48 16.31.76 32.74-2.44 14.75-4.29 20.64-8.52 27.09-2.97 4.54-6.25 8.06-7.28 7.83-1.03-.23.36-2.98 3.09-6.13 3.77-4.34 5.97-10.28 9.13-24.7 3.79-17.28 3.85-20.27.67-33.36-5-20.55-14.42-34.01-36.56-52.16-33.18-27.23-37.59-36.97-38.56-85.31-.98-48.5-6.56-70.85-24.55-98.49-13.07-20.078-30.28-33.407-48.22-37.345-18.05-3.96-41.99 4.797-54.44 19.905-6.73 8.18-11.32 27.52-10.61 44.78.67 16.16-4.71 40.86-10.77 49.52-2.59 3.69-15.1 18.25-27.81 32.35-75.89 84.21-81.224 90.76-87.036 106.9-3.383 9.39-4.68 11.41-5.075 7.93Zm447.241 98.57c6.34-4.95 18.53-7.92 23.11-5.64 4.99 2.49 15.34 15.01 13.43 16.25-.67.43-3.59-2.31-6.48-6.08-4.24-5.54-6.64-6.94-12.38-7.25-3.92-.22-9.48 1.01-12.35 2.73-6.02 3.61-9.95 3.6-5.33-.01Zm109.8 23.59c4.22-.92 11.61-2.46 16.42-3.42 4.81-.96 15.17-3.15 23.02-4.86 30.99-6.79 40.09-8.3 54.95-9.17 8.5-.49 19.04-.1 23.43.86 11.3 2.48 26.51 11.33 38.68 22.52 12.61 11.6 35.31 37.66 33.69 38.7-.64.41-7.83-6.8-15.98-16.03-21.42-24.23-33.42-33.68-49.1-38.69-21.3-6.79-45.99-5.25-90.7 5.67-21.73 5.31-35.6 7.78-38.88 6.93-1.77-.46.24-1.59 4.47-2.51Zm21.51 7.52c5.49-3.32 70.44-15.47 80.81-15.12 15.23.51 29.95 6.17 41.3 15.86 10.09 8.61 28.37 31.72 25.36 32.05-1.42.15-3.37-1.26-4.32-3.12-3.88-7.59-17.39-22.4-27.13-29.75-9.28-7-12.18-8.12-27.8-10.74-9.6-1.61-19.46-2.31-21.93-1.55-2.46.75-10.4 2.61-17.62 4.12-7.23 1.51-19.97 4.43-28.31 6.48-12.59 3.1-24.24 4.11-20.36 1.77Zm25.12 3.81c10.17-4.39 32.58-5.74 46.59-2.81 14.09 2.95 33.24 13.22 41.15 22.05l3.35 3.76-3.74-1.97c-2.07-1.09-9.34-5.62-16.18-10.07-16.7-10.89-32.93-14.45-52.66-11.56-8.07 1.18-16.58 2.25-18.9 2.37l-4.23.22 4.62-1.99Zm30.74 6.24c9.3-2.05 20.57.46 26.18 5.83l4.31 4.14-5.65-2.8c-6.75-3.32-12.81-4.63-23.95-5.15l-8.28-.39 7.39-1.63Zm289.15 65.06c.24-1.32 3.22-8.2 6.63-15.3 19.96-41.62 11.78-112.8-17.2-149.58-27.58-35.02-78.23-59.8-129.6-63.42-30.44-2.15-62.96-7.4-74.77-12.06-22.19-8.76-26.91-20.28-23.15-56.56 2.2-21.32-1.26-39.1-11-56.34-5.59-9.92-8.22-12.33-20.46-18.8-30.91-16.33-48.02-30.4-60.49-49.76-18.58-28.833-15.42-50.202 15.6-105.458 4.03-7.179 8.33-14.247 9.54-15.708 17.25-20.72 35.14-51.235 41.41-70.643l4.06-12.574-8.22-21.203c-15.34-39.529-30.77-60.536-61.92-84.284-14.15-10.782-50.88-33.587-106.72-66.247-25.48-14.903-42.84-22.458-61.23-26.651-16.79-3.829-19.84-3.918-31.41-.908-10.88 2.829-14.78 5.272-25.81 16.166-28.4 28.038-32.6 31.613-41.46 35.273-13.16 5.438-30.97 3.613-65.31-6.695-37.97-11.401-82.71-19.373-107.71-19.194-18.6.131-73.35 5.287-92.779 8.733-38.296 6.795-69.439 18.819-106.241 41.015-18.496 11.155-31.366 17.514-36.535 18.05-14.76 1.53-32.74-6.245-59.015-25.521-27.336-20.055-52.127-23.339-79.872-10.582-15.896 7.307-22.624 13.764-47.814 45.878-30.531 38.921-38.39 42.82-87.048 43.166-46.975.337-55.722 2.587-79.657 20.497-32.147 24.051-37.07 25.358-73.332 19.48-45.227-7.332-50.987-4.655-100.631 46.778-6.882 7.128-16.996 15.747-22.477 19.151-8.814 5.475-11.07 5.947-19.525 4.092-8.174-1.794-10.725-3.561-17.601-12.195-4.423-5.553-11.067-15.493-14.763-22.089-14.736-26.297-31.791-52.739-38.757-60.09-16.693-17.612-37.305-28.354-75.892-39.552-51.6222-14.979-69.11-25.015-81.393-46.708-6.0912-10.758-20.4307-48.411-19.7013-51.734.7196-3.278-10.8101-35.203-19.0145-52.644-16.57982-35.255-32.702-55.711-92.9778-117.967-20.616-21.294-43.1714-46.416-50.1204-55.828-14.889-20.161-29.333-50.654-32.311-68.204-1.166-6.868-2.956-16.624-3.978-21.68-1.022-5.056-1.645-10.169-1.384-11.36 1.104-5.027-6.681-29.046-12.055-37.198-10.963-16.629-18.416-20.763-49.981-27.731-24.062-5.311-30.096-5.948-43.769-4.623-8.724.848-18.435 2.241-21.581 3.096-3.145.856-6.314 1.431-7.042 1.28-.727-.153-8.733 2.041-17.791 4.877-49.92 15.621-82.659 41.275-103.078 80.769-6.437 12.452-8.968 20.604-15.192 48.906-4.109 18.68-7.892 40.468-8.41 48.418-2.01 30.86-5.344 89.329-5.947 104.284-1.205 29.864-13.232 67.395-27.048 84.387-14.504 17.841-50.69 28.49-97.774 28.771-17.708.105-52.042 18.363-72.398 38.499-10.126 10.015-35.226 40.49-35.907 43.593-.15.681-2.21 3.783-4.581 6.892-2.37 3.109-11.669 17.232-20.667 31.384-16.689 26.252-23.404 35.239-19.489 26.089 2.746-6.417 31.371-50.274 46.052-70.558 24.88-34.377 38.753-47.978 64.354-63.101 22.149-13.085 30.033-15.325 58.754-16.699 73.52-3.514 96.353-26.489 105.068-105.718 1.919-17.448 3.65-38.744 3.847-47.325.907-39.486 1.903-52.998 6.043-81.877 10.423-72.703 32.425-111.314 79.353-139.252 58.626-34.903 140.082-39.541 176.542-10.054 16.069 12.995 21.623 26.267 27.361 65.379 3.17 21.599 8.138 40.114 14.033 52.297 11.32 23.396 34.922 53.976 66.3122 85.927 39.7873 40.495 59.1114 61.638 70.6367 77.28 24.2935 32.973 32.0043 49.853 50.3555 110.214 17.0373 56.043 28.4017 65.782 102.1486 87.525 30.084 8.871 47.523 17.298 63.975 30.92 4.94 4.089 18.249 22.936 35.079 49.673 14.915 23.698 29.776 45.218 33.025 47.822 12.921 10.366 25.913 3.78 56.847-28.812 22.959-24.193 39.888-36.752 54.146-40.176 7.752-1.86 14.598-1.501 32.311 1.699 12.359 2.234 28.184 3.719 35.16 3.303 10.709-.638 14.803-2.217 26.258-10.126 25.404-17.539 38.033-25.626 43.797-28.041 5.646-2.367 5.46-2.454-9.994-4.745-8.662-1.285-18.962-1.493-22.889-.464-3.928 1.029-17.15 8.031-29.385 15.562l-22.244 13.692-10.67-2.342c-9.793-2.15-32.069-13.613-36.25-18.655-3.934-4.742-25.232-13.331-32.138-12.957-9.177.494-21.877 9.355-36.37 25.373-17.267 19.086-22.965 23.394-34.395 25.999-11.753 2.679-18.468.812-34.331-9.554-13.954-9.117-28.318-24.409-60.665-64.578-14.904-18.51-34.406-42.585-43.336-53.501-24.055-29.404-37.72-50.745-47.702-74.502-29.108-69.268-35.5349-77.896-96.05625-128.949C-55.932 429.646-65.3448 407.76-45.1386 362.874c3.3609-7.466 8.3228-17.512 11.026-22.324 16.2882-29.007 19.6018-35.905 23.8289-49.612 6.02349-19.539 5.75191-32.747-.976-47.412-15.7778-34.385-61.2371-66.427-143.3093-101.005-19.296-8.131-84.744-23.843-103.243-24.787-7.888-.401-8.612-.719-4.766-2.093 7.79-2.78 91.967 16.647 114.385 26.399C-48.759 185.294-6.53056 220.666-3.37822 263.343c.57179 7.736.55228 16.281-.04153 18.986-1.1056 5.037-15.87765 38.648-19.15725 43.592-6.1648 9.29-19.5241 35.808-23.7396 47.12-9.6525 25.903-6.1827 43.985 12.8908 67.183 12.2989 14.956 16.228 18.708 42.80951 40.876C65.4248 527.836 76.8526 542.769 100.787 600.536c15.633 37.732 22.885 48.704 69.548 105.249 7.358 8.918 22.601 27.753 33.873 41.861 35.913 44.942 48.979 56.384 69.764 61.09 15.759 3.568 22.904.984 36.567-13.233 25.128-26.144 32.996-32.931 41.031-35.387 10.922-3.341 17.351-1.761 33.905 8.34 38.365 23.408 42.437 25.11 52.989 22.169 3.306-.922 14.093-6.976 23.971-13.455 21.185-13.893 28.161-15.88 46.53-13.256 27.673 3.957 59.292 2.689 78.199-3.13 23.334-7.183 35.428-17.014 61.464-49.971 12.931-16.367 23.183-30.27 22.783-30.898-.401-.627-2.835 1.072-5.411 3.773-16.209 17.011-25.799 25.097-42.049 35.464-56.678 36.156-132.022 43.473-188.019 18.258-7.846-3.532-22.772-8.376-33.168-10.765-23.992-5.513-28.859-4.326-62.037 15.12-39.942 23.408-67.186 27.456-97.337 14.456-18.21-7.85-28.524-17.281-39.342-35.972-12.463-21.532-19.764-53.085-20.184-87.227-.535-43.461-4.74-54.99-27.718-75.963-6.036-5.511-11.54-10.143-12.232-10.295-.692-.152-4.936-3.082-9.432-6.508-39.3114-29.97-49.6848-40.071-63.0377-61.394-26.7813-42.759-29.9705-99.304-8.5056-150.763 10.9045-26.141 18.8915-38.2 51.5583-77.855 16.875-20.485 33.766-42.391 37.536-48.68 33.298-55.561 12.999-127.0346-46.563-163.9455C76.1869 19.4735 16.5233 2.05946-10.7407 3.70274-29.3948 4.82735-36.6582 6.88567-51.2149 15.1675c-11.7025 6.6568-17.8708 13.3535-38.8372 42.1726-15.1689 20.8515-30.6139 22.9339-72.5789 9.7857-14.278-4.4722-32.165-10.8254-39.748-14.1172-39.943-17.3393-56.941-23.0387-90.963-30.5061-36.205-7.9467-38.987-8.1175-73.353-4.5021-28.93 3.0412-64.464 14.9388-86.758 29.0472-33.175 20.9938-53.266 49.3495-86.043 121.4334-5.952 13.092-13.246 28.926-16.206 35.188-27.315 57.749-36.594 82.893-45.755 123.993-6.85 30.726-7.951 38.77-7.592 55.446.483 22.373 4.84 44.804 12.846 66.131 3.062 8.159 7.351 22.043 9.53 30.855 5.167 20.879 2.218 37.837-9.212 52.987-12.596 16.696-96.191 96.718-94.902 90.845.273-1.247 11.375-12.186 24.669-24.31 29.601-26.995 52.851-50.247 65.398-65.401 7.894-9.537 9.943-13.609 12.336-24.519 3.148-14.354 1.252-26.044-8.832-54.397-8.112-22.813-13.853-49.524-14.768-68.703-.74-15.531.193-22.049 8.487-59.381 5.125-23.065 11.515-47.108 14.196-53.431 2.682-6.323 7.836-18.857 11.452-27.854 3.617-8.997 8.326-19.744 10.463-23.883 2.139-4.137 7.758-16.098 12.489-26.579 40.39-89.471 56.807-116.4174 86.02-141.1856 19.383-16.4333 58.326-32.5022 91.654-37.8156 33.259-5.3036 44.518-4.6986 87.311 4.6942 29.182 6.4052 44.494 10.7209 57.08 16.0909 54.387 23.2027 87.58 34.2643 105.786 35.2571 18.46 1.0047 31.384-7.8743 44.7466-30.7412C-68.5343 18.2101-44.4871 3.70337-14.5308.887547c10.64071-1.0007 18.79126.02173 43.5887 5.464533C61.937 13.5688 88.7241 23.7731 109.926 37.16c39.397 24.8762 62.091 67.077 61.151 113.719-.357 17.621-.538 18.36-9.051 36.758-7.365 15.921-13.92 25.266-43.125 61.48-36.7643 45.584-44.6014 57.303-53.3064 79.699-8.511 21.903-15.7225 65.281-13.7231 82.558 2.658 22.961 9.1132 43.143 19.4331 60.764 15.273 26.077 26.3007 37.359 61.4534 62.87 30.584 22.196 42.25 34.523 48.211 50.948 3.565 9.821 4.646 19.473 6.296 56.19 2.124 47.314 15.636 81.529 40.431 102.387 8.748 7.357 11.229 8.367 31.434 12.791 31.685 6.936 43.703 3.955 84.663-20.998 30.702-18.705 44.536-19.469 83.992-4.648 46.622 17.515 69.384 21.102 104.849 16.519 59.821-7.731 96.941-28.405 145.496-81.036 41.98-45.504 58.259-52.195 119.456-49.109 39.268 1.982 66.679-8.205 113.274-42.099 46.53-33.85 54.964-39.555 70.006-47.361 33.314-17.288 59.634-26.49 119.314-41.719 35.39-9.029 48.67-12.118 72.68-16.908 8.33-1.663 56.56-6.238 70.44-6.681 14.24-.455 73.29 11.126 90.67 17.783 7.69 2.943 20.28 7.714 27.98 10.6 7.7 2.885 20.01 7.896 27.34 11.134 36.93 16.3 56.54 22.905 89.53 30.144l33.9 7.441 30.9-3.341c49.42-5.341 70.8-3.473 99.05 8.655 53.54 22.984 91.53 61.006 100.96 101.062 5.09 21.569 5.3 39.117.94 75.183-1.98 16.39-5.45 44.947-7.7 63.458-2.26 18.511-4 35.092-3.89 36.846.12 1.754-.58 11.496-1.55 21.648-5.28 54.925-2.13 110.412 8.45 148.876 4.82 17.517 19.15 48.677 28.31 61.527 26.05 36.57 61.89 64.65 103.97 81.45 27.86 11.12 47.7 15.43 77.8 16.93 26.79 1.32 40.08.37 70.61-5.09 11.66-2.09 21.07-3.16 20.9-2.39-.37 1.71-33.4 8-51.53 9.83-53.7 5.39-115.18-8.46-158.27-35.64-57.66-36.39-93.76-94.26-102.22-163.88-5.18-42.651-3.78-100.722 3.81-158.332 1.85-13.993 3.63-30.567 3.96-36.83.32-6.263 2.07-20.959 3.88-32.657 8.02-51.906 3.64-84.581-15.3-114.243-8.53-13.358-14.21-19.361-30.83-32.588-21-16.708-47.68-31.533-69.77-38.765-18.61-6.097-40.83-6.883-76.22-2.702l-32.71 3.866-40.84-9.154c-35.18-7.886-44.68-10.772-68.58-20.829-82.34-34.647-118.08-45.237-156.19-46.28-44.34-1.216-74.16 3.312-150.77 22.888-82.7 21.132-114.068 35.075-168.887 75.063-41.628 30.368-58.206 40.489-79.06 48.273-18.431 6.88-33.355 8.541-66.414 7.392-27.366-.951-43.489 1.167-57.048 7.492-10.781 5.028-29.926 20.875-44.507 36.836-12.551 13.74-14.816 20.118-2.824 7.954 12.717-12.901 29.392-23.014 43.277-26.243 16.109-3.748 32.619-.713 68.901 12.671 47.18 17.405 63.276 12.795 122.947-35.203 36.456-29.325 67.36-44.677 95.265-47.321 15.94-1.511 64.03 8.518 88.87 18.534 8.97 3.62 27.53 9.067 41.23 12.106 21.67 4.803 26.33 5.219 35.8 3.191 19.31-4.135 27.06-10.97 41.23-36.35 12.61-22.576 20.31-31.649 30.81-36.312 18.62-8.268 47.59-2.916 116.9 21.588 8.54 3.017 30.57 9.763 48.97 14.992 35.81 10.181 65.64 21.665 86.95 33.476 37.39 20.719 105.83 88.021 127.23 125.102 8.82 15.271 15.36 37.703 17.02 58.331.89 11.012.01 19.96-3.58 36.288-5.22 23.783-9.86 32.828-36.02 70.11-40.36 57.537-44.45 106.516-10.22 122.356 5.65 2.61 17.94 7.88 27.32 11.7 29.1 11.86 36.52 24.86 41.48 72.71 2.32 22.32 5.96 35.52 12.37 44.82 4.01 5.82 5.47 6.42 25.55 10.65 12.97 2.72 26.38 4.23 34.28 3.85 18.13-.86 43.29 5.03 58.36 13.66 14.94 8.56 33.04 24.16 56.06 48.32 46.49 48.81 68.36 62.65 89.99 56.98 8.7-2.28 20.99-10.89 43.34-30.35 15.08-13.14 28.6-22.6 34.61-24.23 2.45-.67-.18 1.9-5.83 5.69-5.65 3.79-21.04 15.84-34.21 26.78-29.29 24.32-38.69 28.57-55.13 24.96-19.25-4.22-34.37-15.97-75.87-58.98-33.81-35.03-58.61-52.68-80.7-57.45-4.79-1.03-18.51-2.14-30.51-2.46-31.94-.87-43.71-2.49-51.49-7.11-14.73-8.74-20.82-23.11-23.75-56.07-1.95-21.91-6.89-41.72-12.44-49.87-5.81-8.53-16.6-16.06-29.33-20.45-46.2-15.95-55.86-31.27-46.48-73.753 5.78-26.211 13.84-41.38 44.52-83.868 18.59-25.745 26.75-53.065 24.77-82.919-2.77-41.607-19.88-72.263-66.24-118.632-5.65-5.656-12.24-12.398-14.63-14.981-7.69-8.316-34.1-30.471-46.01-38.601-25.71-17.559-58.59-30.978-120.58-49.216-23.21-6.83-47.85-14.572-54.74-17.206-22.38-8.55-55.28-16.988-67.68-17.359-24.4-.731-34.39 6.77-53.25 39.952-21.81 38.398-40.07 44.473-91.35 30.393-13.55-3.723-33.33-10.028-43.95-14.016-67.67-25.397-102.978-17.597-173.493 38.323-45.231 35.867-62.047 42.806-91.966 37.948-9.576-1.553-23.764-5.647-34.868-10.059-29.614-11.768-43.463-14.091-59.608-10.001-23.418 5.935-38.926 18.81-71.179 59.102-29.594 36.97-39.431 45.544-61.827 53.883l-11.196 4.169 7.262.244c30.997 1.04 46.822-7.498 70.285-37.914 20.896-27.086 23.137-29.651 34.851-39.883 18.386-16.061 41.091-22.044 63.966-16.853 15.454 3.505 23.204 7.573 50.662 26.593 16.457 11.398 30.517 16.663 41.47 15.527 5.233-.541 17.859-6.824 36.515-18.166 42.022-25.553 74.933-36.981 126.256-43.846 72.51-9.696 112.52-7.571 166.89 8.858 16.29 4.925 38.13 10.416 48.52 12.204 28.37 4.88 35.1 1.645 68.19-32.748 16.76-17.416 27.76-22.273 47.89-21.144 14.47.814 41.95 9.381 56.74 17.694 18.61 10.456 81.13 46.778 87.13 50.611 3.53 2.257 11.37 7.247 17.42 11.087 17.96 11.396 40.65 29.835 51.44 41.794 13.66 15.153 22.79 30.98 33.39 57.887l8.9 22.618-4.77 15.706c-2.63 8.638-7.65 20.731-11.15 26.873-6 10.499-9.07 15.151-21.79 32.915-14.68 20.508-22.59 34.224-35.37 61.35-11.77 24.992-12.16 37.767-1.81 59.294 6.46 13.44 9.37 17.33 21.07 28.24 11.9 11.1 25.56 20.24 43.49 29.11 12.57 6.22 14.52 8.02 20.49 18.85 8.76 15.9 13.36 34.9 11.93 49.32-1.9 19.17-1.73 40.51.37 46.04 1.08 2.84 5.25 7.87 9.27 11.18 6.64 5.46 9.76 6.46 33.65 10.82 14.49 2.64 35.1 5.57 45.82 6.49 27.37 2.37 66.78 12.92 85.87 22.99 50.26 26.51 76.96 68.9 80.2 127.34 1.21 22-8.09 67.02-15.99 77.34-2.64 3.45-4.6 5.2-4.35 3.89Zm30.57-1.67c3.51-10.47 22.58-44.06 33.11-58.31 8.94-12.12 24.17-27.93 35.78-37.17 13.46-10.72 46.13-30.89 47.21-29.15.47.74-5.18 4.88-12.55 9.2-43.89 25.74-69.45 53.65-96.34 105.2-7.97 15.28-9.76 17.83-7.21 10.23Zm33.76 4.27c4.92-6.05 11.06-12.95 13.64-15.33 2.58-2.39 10.1-9.75 16.72-16.36 17.58-17.57 38.6-35.81 37.98-32.96-.3 1.36-6.76 7.93-14.36 14.61-23.15 20.34-57.48 55.6-58.46 60.04-.23 1.03-1.32 1.69-2.44 1.44-1.11-.24 2.01-5.39 6.92-11.44Zm37.13 6.97c16.18-18.3 20.4-22.46 19.76-19.5-.79 3.65-26.4 32.05-28.54 31.65-.93-.17 3.03-5.63 8.78-12.15ZM488.602 1137.15c-11.543-7.77-24.756-25.45-27.833-37.26-7.957-30.54 28.053-72.17 64.159-74.16 17.224-.95 45.023 11.58 61.182 27.56 17.357 17.18 16.952 49.81-.886 71.55-8.124 9.91-30.258 21.83-44.52 23.99-16.058 2.43-38.656-2.64-52.102-11.68Zm46.838 9.36c20.416-2.26 39.749-12.68 50.615-27.29 11.936-16.04 13.51-44.54 3.211-58.1-16.781-22.09-52.171-36.53-74.541-30.41-11.029 3.02-27.369 12.8-35.28 21.13-6.523 6.86-14.93 21.92-16.591 29.72-1.626 7.62.862 21.61 5.297 29.78 12.229 22.53 41.811 37.99 67.289 35.17ZM647.127 1157c8.457-10.2 21.06-22.48 34.058-33.19 14.45-11.91 58.981-28.35 82.388-30.43 6.607-.58 6.351-.73-3.385-2.02-11.359-1.49-27.636.91-43.876 6.49-5.595 1.92-16.244 5.44-23.664 7.82-21.939 7.05-36.254 19.19-43.454 36.83-1.727 4.23-5.924 12.06-9.33 17.41-10.496 16.47-7.967 15.46 7.263-2.91Zm-8.905-1.59c-.286-1.73-.863-1.36-1.469.94-.548 2.09-.336 3.37.471 2.85.808-.51 1.258-2.22.998-3.79Zm7.03-10.11c.318-1.37-.319-2.69-1.416-2.93-1.097-.24-2.523 2.04-3.17 5.07-.916 4.28-.602 4.93 1.416 2.93 1.424-1.42 2.851-3.7 3.17-5.07Zm-253.631-66.1c-.079-2.05-.769-1.05-1.532 2.24-.764 3.29-.7 4.97.143 3.74.843-1.23 1.469-3.92 1.389-5.98Zm7.566-32.67c2.638-10.39 14.504-33.33 23.635-45.7 10.358-14.023 34.753-37.713 49.074-47.653 16.705-11.594 4.5-7.408-15.654 5.367-32.292 20.475-53.583 52.616-61.902 93.466-2.07 10.16-2.031 11.79.184 7.37 1.561-3.11 3.66-8.9 4.663-12.85Zm263.617 2.28c-1.248-.85-3.491-1.35-4.985-1.09-1.491.25-.47.95 2.272 1.55 2.742.6 3.964.4 2.713-.46Zm35.723 1.51c5.873-.57 16.225-2.74 23.004-4.82l12.327-3.79 40.129 7.62c44.434 8.44 37.984 8.62 82.502-2.28 10.004-2.45 21.806-4.8 26.229-5.23 4.422-.43 9.091-1.28 10.375-1.89 1.284-.61 8.206-.98 15.384-.82 7.178.16 13.622-.3 14.322-1.02.7-.73-5.705-3.51-14.235-6.19-16.764-5.27-24.183-5.33-41.835-.36-28.441 8.02-59.733 9.69-90.231 4.83-28.011-4.47-49.018-5.82-57.183-3.66-3.545.93-13.193 4.18-21.44 7.21-8.248 3.03-18.926 6.28-23.728 7.21l-8.732 1.69 11.217 1.27c6.17.69 16.023.8 21.895.23ZM-708.698 705.822c.55-2.857 16.964-20.935 29.818-32.837 16.792-15.55 31.251-26.398 69.99-52.508 21.153-14.258 42.139-28.972 46.636-32.697 4.498-3.727 14.386-10.211 21.975-14.409 37.084-20.511 57.031-53.608 53.125-88.146-2.276-20.111-5.024-29.188-15.443-51.006-10.29-21.545-10.652-23.989-9.83-66.072 1.064-54.449 17.967-102.687 51.328-146.476 37.868-49.707 89.423-86.609 138.886-99.416 14.993-3.882 36.112-6.457 45.915-5.6 7.423.649 6.773.86-3.47 1.123-19.575.504-58.875 11.248-80.661 22.052-43.443 21.545-87.735 62.857-113.508 105.87-22.373 37.344-33.043 70.197-35.352 108.863-1.106 18.505-1.135 26.891-.185 51.93.176 4.646 1.906 11.151 3.843 14.456 7.65 13.047 15.746 33.924 19.385 49.995 3.65 16.11 3.609 17.886-.901 38.882-4.661 21.7-4.879 22.193-16.071 36.082-8.799 10.924-16.958 17.825-36.368 30.763-67.637 45.089-101.468 68.68-119.127 83.069-17.632 14.369-23.865 20.264-43.908 41.544-3.597 3.818-6.332 5.86-6.077 4.538ZM522.748 946.024c36.208 4.817 49.032 2.592 72.63-12.608 14.829-9.552 18.538-13.909 9.757-11.461-2.248.627-13.16 2.207-24.25 3.511-11.092 1.302-22.768 3.079-25.947 3.943-3.181.866-6.68 1.382-7.776 1.15-2.45-.523-38.074 6.603-50.283 10.055-7.741 2.19-8.102 2.517-2.748 2.474 3.392-.029 16.269 1.294 28.617 2.936Zm150.069-26.15c17.799-2.257 24.906-4.691 53.109-18.191 26.65-12.757 33.582-15.066 51.458-17.149 20.822-2.425 38.798 4.187 65.137 23.956 5.922 4.446 16.441 11.102 23.374 14.794 30.959 16.481 97.799 21.212 116.124 8.22 2.941-2.085 11.473-11.4 18.961-20.7 7.49-9.299 17.79-20.232 22.9-24.294 5.1-4.063 10.29-8.579 11.52-10.037 2.6-3.068-32.27 19.419-52.218 33.679-18.645 13.329-30.012 18.511-46.305 21.109-18.826 3.001-36.868-.988-57.98-12.824-42.879-24.038-72.331-37.688-89.519-41.492-14.556-3.221-28.655-1.109-48.52 7.264-41.846 17.638-72.928 28.085-88.935 29.893-4.004.454-9.359 1.722-11.9 2.821-4.145 1.794-3.36 2.132 7.638 3.293 6.741.711 18.061.557 25.156-.342Zm299.848 31.012c5.127-.763 8.113-3.865 22.641-23.525 4.394-5.947 8.644-11.141 9.444-11.541.8-.401 4.93-4.035 9.19-8.075 13.69-12.995 44.13-29.672 62.51-34.242 16.87-4.196 16.93-4.196 41.91 1.357 20.1 4.466 27.96 7.161 39.96 13.687 32.38 17.617 58.84 40.67 98.25 85.598 5.52 6.29 10.77 11.66 11.67 11.935 3.16.966-15.3-30.184-23.84-40.23-4.76-5.59-14.83-14.125-22.39-18.97-7.56-4.844-23-15.446-34.33-23.557-26.29-18.832-46.14-28.686-67.05-33.276-17.64-3.869-42.99-3.972-59.47-.241-19.8 4.481-50.58 28.721-62 48.815-1.411 2.482-3.551 5.311-4.756 6.286-1.207.975-5.212 4.216-8.904 7.2-7.628 6.169-19.415 9.804-30.681 9.463-13.38-.404-9.737 3.375 8.481 8.798 2.358.702 6.571.936 9.365.518Zm268.915-17.547c-16.33-27.42-69.69-56.869-122.14-67.402-17.76-3.569-17.65-3.515 6.56 3.218 26.83 7.465 47.67 18.198 64.56 33.261 1.81 1.613 10.95 7.779 20.31 13.702 9.36 5.921 20.09 13.27 23.83 16.331 9.34 7.624 11.02 7.841 6.88.89Zm-144.13-69.821c-1.81-.924-4.95-1.614-6.98-1.532-2.02.081-.55.837 3.29 1.679 3.84.843 5.5.776 3.69-.147Z" fill="url(#a)"/>
  <linearGradient id="a" x1="573.058" y1="1350.57" x2="771.078" y2="448.391" gradientUnits="userSpaceOnUse">
    <stop stop-color="#FFFDF6" stop-opacity="0.3" />
    <stop offset="1" stop-color="#FFFDF6" stop-opacity="0"/>
  </linearGradient>
</svg>